<?xml version="1.0" standalone="no"?>
<!DOCTYPE svg PUBLIC "-//W3C//DTD SVG 1.1//EN" "http://www.w3.org/Graphics/SVG/1.1/DTD/svg11.dtd" >
<svg xmlns="http://www.w3.org/2000/svg" xmlns:xlink="http://www.w3.org/1999/xlink" version="1.1">
<metadata>
Created by FontForge 20170731 at Sat Jun 17 22:45:25 2023
 By Aleksey,,,
Personal Use Only - Commercial licences available. 
</metadata>
<defs>
<font id="Moon2.0-Regular" horiz-adv-x="1228" >
  <font-face 
    font-family="Moon 2.0"
    font-weight="400"
    font-stretch="normal"
    units-per-em="2048"
    panose-1="0 0 5 0 0 0 0 0 0 0"
    ascent="1638"
    descent="-410"
    x-height="1102"
    cap-height="1446"
    bbox="-168.977 -563 2134 1853"
    underline-thickness="102"
    underline-position="-307"
    unicode-range="U+0020-1D153"
  />
<missing-glyph horiz-adv-x="1024" 
d="M840 1638v-2048h-650v2048h650zM682 1501h-338v-67h133v-76h-135v-68h340v68h-135v76h135v67zM547 1237h-205v-213h340v70h-135v143zM477 1167v-73h-67v73h67zM682 969h-340v-68h135v-76h-135v-67h205v143h135v68zM682 846h-68v-135h-272v-70h340v205zM682 596h-205v-115
h70v47h67v-96h-204v164h-68v-231h340v231zM682 242h-340v-232h340v232zM614 174v-96h-204v96h204zM682 -37h-340v-67h143l-143 -97v-67h340v67h-209l143 97h66v67z" />
    <glyph glyph-name="fi" unicode="fi" horiz-adv-x="706" 
d="M580 1184q-26 0 -45 19.5t-19 45.5v66q-8 2 -20 2q-72 0 -123 -51t-51 -123v-94h258q30 0 47.5 -17.5t17.5 -48.5v-917q0 -28 -18.5 -47t-46.5 -19q-26 0 -45 19t-19 47v852h-194v-848q0 -28 -19 -47t-47 -19t-47 19t-19 47v848h-63q-27 0 -46.5 19t-19.5 46q0 28 19 47
t47 19h63v94q0 126 90 215.5t216 89.5q47 0 108 -21q19 -7 30 -24t11 -37v-117q0 -27 -19 -46t-46 -19z" />
    <glyph glyph-name="fl" unicode="fl" horiz-adv-x="716" 
d="M655 1362v-4v-1292q0 -28 -19.5 -47t-45.5 -19q-28 0 -47 19t-19 47v1249q-6 2 -20 2q-72 0 -123 -51t-51 -123v-94h69q27 0 46.5 -19.5t19.5 -46.5q0 -26 -20 -45.5t-46 -19.5h-69v-848q0 -28 -19 -47t-47 -19q-26 0 -44.5 19t-18.5 47v848h-74q-27 0 -46.5 19t-19.5 46
q0 28 19 47t47 19h74v94q0 126 88.5 215.5t214.5 89.5q47 0 108 -21q46 -16 43 -65z" />
    <glyph glyph-name=".notdef" horiz-adv-x="1024" 
d="M840 1638v-2048h-650v2048h650zM682 1501h-338v-67h133v-76h-135v-68h340v68h-135v76h135v67zM547 1237h-205v-213h340v70h-135v143zM477 1167v-73h-67v73h67zM682 969h-340v-68h135v-76h-135v-67h205v143h135v68zM682 846h-68v-135h-272v-70h340v205zM682 596h-205v-115
h70v47h67v-96h-204v164h-68v-231h340v231zM682 242h-340v-232h340v232zM614 174v-96h-204v96h204zM682 -37h-340v-67h143l-143 -97v-67h340v67h-209l143 97h66v67z" />
    <glyph glyph-name=".null" horiz-adv-x="0" 
 />
    <glyph glyph-name="nonmarkingreturn" horiz-adv-x="682" 
 />
    <glyph glyph-name="space" unicode=" " 
 />
    <glyph glyph-name="exclam" unicode="!" horiz-adv-x="299" 
d="M150 293q28 0 46.5 18.5t18.5 46.5v1041q0 28 -18.5 46.5t-46.5 18.5q-27 0 -46.5 -19t-19.5 -46v-1041q0 -27 19.5 -46t46.5 -19zM150 166q-37 0 -63 -23.5t-26 -58.5q0 -36 26 -60t63 -24t62.5 24t25.5 60q0 35 -25.5 58.5t-62.5 23.5z" />
    <glyph glyph-name="quotedbl" unicode="&#x22;" horiz-adv-x="550" 
d="M401 1577q-37 0 -62.5 -23.5t-25.5 -58.5q0 -44 27.5 -105t60.5 -61t60.5 61t27.5 105q0 35 -25.5 58.5t-62.5 23.5zM150 1573q-37 0 -63 -23.5t-26 -58.5q0 -44 28 -105t61 -61t60.5 61t27.5 105q0 35 -25.5 58.5t-62.5 23.5z" />
    <glyph glyph-name="numbersign" unicode="#" horiz-adv-x="1165" 
d="M1038 406q26 0 46 -20t20 -46q0 -27 -19.5 -46.5t-46.5 -19.5h-241l-25 -217q-3 -25 -21.5 -41t-43.5 -16h-9q-26 3 -43 24.5t-14 49.5l25 200h-271l-24 -217q-3 -25 -21 -41t-43 -16h-8q-27 3 -43.5 24.5t-13.5 49.5l22 200h-137q-28 0 -47 19t-19 47q0 27 19.5 46.5
t46.5 19.5h154l63 548h-217q-27 0 -46.5 19.5t-19.5 46.5q0 28 19 46.5t47 18.5h231l35 304q3 27 24 43.5t48 13.5t43.5 -24t13.5 -48l-33 -289h269l35 304q3 28 24 44t49 13q26 -3 43.5 -24.5t14.5 -47.5l-35 -289h149q27 0 46.5 -19t19.5 -46q0 -26 -20 -46t-46 -20h-164
l-63 -548h227zM412 406h268l63 548h-268z" />
    <glyph glyph-name="dollar" unicode="$" horiz-adv-x="874" 
d="M512 670q51 -16 88 -31t80 -42t70 -59.5t45 -82.5t18 -111q0 -65 -24.5 -125.5t-70 -110t-118.5 -79t-162 -29.5h-4l-6 -68q-3 -25 -22 -41t-44 -16h-8q-26 3 -43 24.5t-14 49.5l8 71q-116 35 -180 125.5t-64 198.5q0 26 20 46t46 20q27 0 46.5 -19.5t19.5 -46.5
q0 -52 31 -107t98 -83l47 421q-48 15 -83 29t-75 39.5t-65.5 55.5t-42.5 76t-17 102q0 60 23 116.5t66 102t111 73t152 27.5h2l9 68q3 28 24 44t49 13q26 -3 43.5 -24.5t14.5 -47.5l-11 -73q105 -35 162 -118t57 -181q0 -28 -18.5 -47t-46.5 -19q-26 0 -45 19t-19 47
q0 48 -27 93t-77 70zM217 877q0 -66 38 -101.5t130 -66.5l41 356q-100 -3 -154.5 -59t-54.5 -129zM451 131q53 2 95 18t67 39t41.5 52t23 54.5t6.5 49.5q0 80 -44 120.5t-142 72.5z" />
    <glyph glyph-name="percent" unicode="%" horiz-adv-x="1515" 
d="M1116 1440q25 -12 33 -37.5t-4 -50.5l-658 -1315q-18 -37 -59 -37q-14 0 -29 6q-24 12 -32 37.5t4 50.5l657 1317q12 23 37.5 32t50.5 -3zM684 1151q0 -126 -89.5 -210.5t-221.5 -84.5t-222 84.5t-90 210.5t90 210.5t222 84.5t221.5 -84.5t89.5 -210.5zM193 1151
q0 -72 51 -118t129 -46t129 46t51 118t-51 119t-129 47t-129 -47t-51 -119zM1143 590q133 0 222 -84.5t89 -210.5t-89 -210.5t-222 -84.5q-132 0 -220.5 84.5t-88.5 210.5t88.5 210.5t220.5 84.5zM1143 131q78 0 129 46.5t51 117.5q0 72 -51 119t-129 47t-129 -47t-51 -119
q0 -71 51 -117.5t129 -46.5z" />
    <glyph glyph-name="ampersand" unicode="&#x26;" horiz-adv-x="1290" 
d="M1165 131q26 0 45 -19.5t19 -45.5q0 -28 -19 -47t-45 -19q-179 0 -301 88q-130 -88 -305 -88q-118 0 -214.5 38.5t-157.5 103t-93.5 144t-32.5 165.5q0 82 24.5 147t70.5 110t98 75.5t121 56.5q-187 86 -187 270q0 64 24 123.5t69.5 107.5t117.5 76.5t160 28.5
t159.5 -28.5t116.5 -76.5t69 -107.5t24 -123.5q0 -28 -19 -47t-47 -19q-26 0 -45.5 19t-19.5 47q0 82 -61.5 144.5t-176.5 62.5t-177.5 -62.5t-62.5 -144.5q0 -43 15 -73.5t51.5 -54t80 -40t118.5 -37.5l18 -6q23 -6 36.5 -26.5t10.5 -45.5q-3 -21 -17.5 -35.5t-35.5 -19.5
l-14 -4q-61 -18 -98.5 -30t-83.5 -29.5t-73.5 -33.5t-56 -39t-43.5 -49t-24.5 -60.5t-9.5 -75.5q0 -60 22.5 -115.5t65.5 -102t115 -74.5t163 -28q126 0 209 51q-70 90 -106 240q-6 26 8.5 49t40.5 29q27 6 49 -8t28 -41q24 -109 78 -181q55 77 58 168q2 28 21.5 46.5
t45.5 17.5q28 -1 46 -20.5t18 -47.5q-6 -142 -92 -254q82 -49 202 -49z" />
    <glyph glyph-name="quotesingle" unicode="'" horiz-adv-x="299" 
d="M150 1511q-37 0 -63 -23t-26 -58q0 -44 28 -105t61 -61t60.5 61t27.5 105q0 35 -25.5 58t-62.5 23z" />
    <glyph glyph-name="parenleft" unicode="(" horiz-adv-x="358" 
d="M233 0q5 0 21 4q25 7 37 31.5t4 50.5q-101 312 -101 637t101 639q8 25 -4 49t-37 33q-26 8 -50.5 -4.5t-33.5 -38.5q-107 -331 -107 -677t107 -679q17 -45 63 -45z" />
    <glyph glyph-name="parenright" unicode=")" horiz-adv-x="358" 
d="M127 0q46 0 63 45q107 333 107 679t-107 677q-9 26 -33.5 38.5t-50.5 4.5q-25 -9 -36.5 -33t-3.5 -49q101 -314 101 -639t-101 -637q-8 -26 3.5 -50.5t36.5 -31.5q16 -4 21 -4z" />
    <glyph glyph-name="asterisk" unicode="*" horiz-adv-x="641" 
d="M559 1245q8 0 14.5 -5.5t6.5 -14.5t-6.5 -16t-14.5 -7h-186l131 -131q6 -6 6 -15.5t-6 -15.5t-15.5 -6t-15.5 6l-131 134v-193q0 -9 -6 -16t-14 -7q-9 0 -16 7t-7 16v193l-135 -138q-17 -14 -31 0q-6 6 -6 15.5t6 15.5l137 135h-188q-8 0 -14.5 7t-6.5 16t6.5 14.5
t14.5 5.5h186l-131 133q-6 6 -6 14.5t6 14.5t15.5 6t15.5 -6l131 -131v192q0 9 7 15t16 6q8 0 14 -6t6 -15v-194l137 137q6 6 14.5 6t14.5 -6q14 -15 0 -29l-137 -137h188z" />
    <glyph glyph-name="plus" unicode="+" horiz-adv-x="712" 
d="M586 686q27 0 46 -19t19 -46q0 -28 -18.5 -47t-46.5 -19h-164v-164q0 -28 -19 -46.5t-47 -18.5q-27 0 -46 19t-19 46v164h-164q-27 0 -46.5 19.5t-19.5 46.5q0 26 20 45.5t46 19.5h164v164q0 26 19.5 45.5t45.5 19.5q28 0 47 -19.5t19 -45.5v-164h164z" />
    <glyph glyph-name="comma" unicode="," horiz-adv-x="299" 
d="M150 135q-37 0 -63 -23.5t-26 -58.5q0 -44 28 -105t61 -61t60.5 61t27.5 105q0 35 -25.5 58.5t-62.5 23.5z" />
    <glyph glyph-name="hyphen" unicode="-" horiz-adv-x="745" 
d="M618 506q28 0 47 18.5t19 46.5t-19 47t-47 19h-491q-28 0 -47 -19t-19 -47t19 -46.5t47 -18.5h491z" />
    <glyph glyph-name="period" unicode="." horiz-adv-x="247" 
d="M98 135q-37 0 -62.5 -23.5t-25.5 -58.5q0 -36 25.5 -60t62.5 -24t62.5 24t25.5 60q0 35 -25.5 58.5t-62.5 23.5z" />
    <glyph glyph-name="slash" unicode="/" horiz-adv-x="718" 
d="M104 6q27 -9 51 2t33 37l465 1274q9 27 -2 51t-37 33q-27 9 -51 -2t-33 -37l-464 -1274q-9 -27 1.5 -51t36.5 -33z" />
    <glyph glyph-name="zero" unicode="0" horiz-adv-x="1568" 
d="M784 0q196 0 362.5 97t263.5 263.5t97 362.5t-97 362.5t-263.5 263.5t-362.5 97t-362.5 -97t-263.5 -263.5t-97 -362.5t97 -362.5t263.5 -263.5t362.5 -97zM784 1317q160 0 296.5 -79.5t216 -216.5t79.5 -298q0 -160 -79.5 -296.5t-216 -216t-296.5 -79.5
q-121 0 -230.5 47t-188.5 126.5t-125.5 189t-46.5 229.5q0 121 46.5 231t125.5 189.5t188.5 126.5t230.5 47z" />
    <glyph glyph-name="one" unicode="1" horiz-adv-x="253" 
d="M127 0q28 0 47 19t19 47v1314q0 28 -19 47t-47 19t-47 -19t-19 -47v-1314q0 -28 19 -47t47 -19z" />
    <glyph glyph-name="two" unicode="2" horiz-adv-x="1079" 
d="M952 0q27 0 46.5 19.5t19.5 46.5q0 26 -20 45.5t-46 19.5h-753q10 48 36.5 95t55 82t81.5 81t86.5 71.5t100.5 74.5q44 31 66.5 47.5t63 48t63 51.5t55.5 52t52 57.5t41 60t33.5 66.5t19.5 70.5t8 78.5q0 72 -27.5 139t-79 121t-133 86.5t-180.5 32.5q-196 0 -316 -137
q-100 -117 -100 -267q0 -28 18.5 -46.5t46.5 -18.5q26 0 45 18.5t19 46.5q0 33 9.5 68.5t31.5 73t54 67t82 48t110 18.5q72 0 128.5 -22t90.5 -58.5t51.5 -80t17.5 -89.5q0 -37 -11 -73t-26 -65.5t-44.5 -64t-53 -58t-66 -57.5t-69 -54t-76.5 -56q-56 -40 -87 -63
t-82.5 -65.5t-81 -73.5t-67 -77.5t-57 -88.5t-33.5 -95.5t-14 -109.5q0 -28 19 -47t47 -19h825z" />
    <glyph glyph-name="three" unicode="3" horiz-adv-x="1042" 
d="M520 0q110 0 199.5 35.5t145.5 95t86 133t30 152.5q0 74 -21 133t-60.5 100.5t-85 69.5t-105.5 51q102 45 160.5 117t58.5 190q0 70 -26.5 135.5t-76.5 118t-129 84t-176 31.5q-96 0 -175 -31.5t-128 -84t-75.5 -118t-26.5 -135.5q0 -28 18.5 -46.5t46.5 -18.5
q27 0 46.5 19t19.5 46q0 44 17 86t49 77t86 56t122 21q133 0 205 -72t72 -168q0 -43 -14.5 -76t-36 -55.5t-64 -42.5t-81 -33t-103.5 -32l-6 -2q-22 -3 -38.5 -18.5t-19.5 -37.5q-3 -25 10 -45.5t37 -27.5l17 -5q64 -19 102.5 -31.5t84.5 -31.5t71.5 -38t49.5 -46t34 -61.5
t10 -77.5q0 -53 -20 -102.5t-59 -91t-104 -66.5t-147 -25q-81 0 -145.5 25t-103 66.5t-58.5 91t-20 102.5q0 28 -19 46.5t-47 18.5q-27 0 -46.5 -19t-19.5 -46q0 -79 30 -152.5t86 -133t145 -95t198 -35.5z" />
    <glyph glyph-name="four" unicode="4" horiz-adv-x="1013" 
d="M887 475q28 0 46.5 -18.5t18.5 -46.5t-18.5 -47t-46.5 -19h-199v-278q0 -28 -18.5 -47t-46.5 -19q-27 0 -46.5 19.5t-19.5 46.5v278h-430q-34 0 -53 29q-20 30 -8 59l366 973q9 25 33.5 35.5t50.5 1.5q25 -9 36 -33.5t1 -50.5l-332 -883h336v213q0 26 20 45t46 19
q27 0 46 -19t19 -45v-213h199z" />
    <glyph glyph-name="five" unicode="5" horiz-adv-x="1021" 
d="M512 0q107 0 194 35t141.5 93t84 130.5t29.5 149.5q0 59 -14 108.5t-36.5 85.5t-57 65t-70 48.5t-80 36.5t-83 27.5t-83.5 22.5q-3 1 -5 1q-58 15 -93 25t-75 25.5t-62 31.5t-42.5 38.5t-28.5 51.5t-8 67v275h537v-78q0 -27 19 -46t46 -19q26 0 46 19.5t20 45.5v141
q0 27 -19.5 46.5t-46.5 19.5h-667q-28 0 -47 -19t-19 -47v-338q0 -54 14 -100t34 -78t56 -60.5t66 -45.5t78.5 -34t78.5 -25t81 -21q60 -16 96.5 -26.5t79 -27.5t66.5 -35t46.5 -44t31.5 -60t9 -77q0 -52 -19.5 -100t-56.5 -88t-99.5 -64.5t-141.5 -24.5t-142 24.5
t-100.5 64.5t-57 88.5t-19.5 99.5q0 28 -19 46.5t-47 18.5t-47 -18.5t-19 -46.5q0 -78 29.5 -150t84 -130t142.5 -93t195 -35z" />
    <glyph glyph-name="six" unicode="6" horiz-adv-x="1001" 
d="M500 831q188 0 314 -118.5t126 -296.5t-126 -297t-314 -119t-313.5 119t-125.5 297q0 165 42 321.5t118 283.5t176.5 223t223.5 149t253 53q27 0 46.5 -19.5t19.5 -46.5q0 -26 -19.5 -44.5t-46.5 -18.5q-133 0 -256 -68.5t-221 -197.5q-95 -126 -149 -291q110 71 252 71z
M500 131q132 0 220.5 81.5t88.5 203.5q0 121 -88.5 202.5t-220.5 81.5q-131 0 -219 -81.5t-88 -202.5t88 -203t219 -82z" />
    <glyph glyph-name="seven" unicode="7" horiz-adv-x="1019" 
d="M219 0q42 0 57 35l674 1317q17 34 -2 63q-19 31 -55 31h-766q-28 0 -47 -19t-19 -47q0 -26 19 -44.5t47 -18.5h659l-626 -1223q-12 -23 -3.5 -48.5t31.5 -37.5q13 -8 31 -8z" />
    <glyph glyph-name="eight" unicode="8" horiz-adv-x="999" 
d="M735 770q94 -55 148.5 -148t54.5 -206q0 -178 -125 -297t-313 -119t-313.5 119t-125.5 297q0 113 54.5 206t148.5 148q-74 52 -116 131t-42 172q0 160 112.5 266.5t281.5 106.5q167 0 280 -106.5t113 -266.5q0 -93 -42 -172t-116 -131zM238 1073q0 -104 74 -173t188 -69
t188 69t74 173q0 106 -74 175t-188 69t-188 -69t-74 -175zM500 131q132 0 219.5 81.5t87.5 203.5t-87.5 203t-219.5 81t-221 -81.5t-89 -202.5t89 -203t221 -82z" />
    <glyph glyph-name="nine" unicode="9" horiz-adv-x="999" 
d="M500 1446q188 0 313 -119t125 -297q0 -205 -65.5 -395.5t-174.5 -329t-259 -222t-312 -83.5q-28 0 -47 19t-19 47q0 26 19.5 45.5t46.5 19.5q132 0 255 68.5t220 195.5q100 130 152 293q-113 -74 -254 -74q-187 0 -313 119.5t-126 296.5q0 178 125.5 297t313.5 119z
M500 745q132 0 220.5 81.5t88.5 203.5q0 123 -88.5 205t-220.5 82t-219.5 -82t-87.5 -205q0 -122 87.5 -203.5t219.5 -81.5z" />
    <glyph glyph-name="colon" unicode=":" horiz-adv-x="299" 
d="M150 700q-37 0 -63 -23.5t-26 -58.5q0 -36 26 -59.5t63 -23.5t62.5 23.5t25.5 59.5q0 35 -25.5 58.5t-62.5 23.5zM150 135q-37 0 -63 -23.5t-26 -58.5q0 -36 26 -60t63 -24t62.5 24t25.5 60q0 35 -25.5 58.5t-62.5 23.5z" />
    <glyph glyph-name="semicolon" unicode=";" horiz-adv-x="299" 
d="M150 700q-37 0 -63 -23.5t-26 -58.5q0 -36 26 -59.5t63 -23.5t62.5 23.5t25.5 59.5q0 35 -25.5 58.5t-62.5 23.5zM150 176q-37 0 -63 -23.5t-26 -58.5q0 -42 27.5 -93.5t61.5 -51.5t61 51.5t27 93.5q0 35 -25.5 58.5t-62.5 23.5z" />
    <glyph glyph-name="less" unicode="&#x3c;" horiz-adv-x="614" 
d="M487 498q42 0 58 37q12 23 3.5 49.5t-32.5 36.5l-244 122l244 121q24 12 32.5 38.5t-3.5 49.5q-10 24 -36.5 33t-49.5 -2l-361 -180q-37 -19 -37 -60q0 -40 37 -59l361 -180q12 -6 28 -6z" />
    <glyph glyph-name="equal" unicode="=" horiz-adv-x="712" 
d="M586 659q28 0 46.5 19t18.5 47q0 27 -19 46.5t-46 19.5h-459q-26 0 -46 -20t-20 -46q0 -27 19.5 -46.5t46.5 -19.5h459zM586 397q28 0 46.5 19t18.5 47q0 27 -19 46t-46 19h-459q-26 0 -46 -19.5t-20 -45.5q0 -27 19.5 -46.5t46.5 -19.5h459z" />
    <glyph glyph-name="greater" unicode="&#x3e;" horiz-adv-x="614" 
d="M127 498q17 0 29 6l360 180q37 19 37 59q0 41 -37 60l-360 180q-23 11 -49.5 2t-36.5 -33q-12 -23 -4 -49.5t32 -38.5l244 -121l-244 -122q-24 -10 -32 -36.5t4 -49.5q16 -37 57 -37z" />
    <glyph glyph-name="question" unicode="?" horiz-adv-x="958" 
d="M449 293q27 0 46 19t19 46q0 59 9.5 105t21.5 75.5t38.5 59t45 44.5t55.5 42q34 25 51.5 39t47.5 42.5t46 56t34 66t26 87.5t8 108q0 72 -27.5 139.5t-78.5 122t-132 87t-180 32.5q-200 0 -315 -137q-103 -115 -103 -268q0 -27 19.5 -46.5t46.5 -19.5t46.5 19.5
t19.5 46.5q0 43 16 88t48 88t90 70.5t132 27.5q138 0 212.5 -75t74.5 -175q0 -51 -9 -92t-20 -67t-36.5 -53t-42 -40.5t-52.5 -39.5q-41 -31 -62.5 -48.5t-57 -58.5t-54.5 -81t-34 -104.5t-15 -140.5q0 -28 19 -46.5t47 -18.5zM449 166q-37 0 -63 -23.5t-26 -58.5
q0 -36 26 -60t63 -24t62.5 24t25.5 60q0 35 -25.5 58.5t-62.5 23.5z" />
    <glyph glyph-name="at" unicode="@" horiz-adv-x="1568" 
d="M784 1446q195 0 361.5 -97t264 -263.5t97.5 -362.5q0 -145 -55 -277t-158 -235q-19 -19 -45.5 -19t-46.5 19l-223 225q-86 -61 -195 -61q-145 0 -246.5 101.5t-101.5 246.5t101.5 246.5t246.5 101.5q143 0 246 -102t103 -246q0 -108 -62 -195l176 -176q129 160 129 371
q0 161 -79.5 298t-216 216.5t-296.5 79.5q-161 0 -298 -79.5t-216.5 -216.5t-79.5 -298q0 -160 79.5 -296.5t216.5 -216t298 -79.5q26 0 46 -19.5t20 -45.5q0 -27 -19.5 -46.5t-46.5 -19.5q-196 0 -362.5 97t-263.5 263.5t-97 362.5t97 362.5t263.5 263.5t362.5 97zM565 723
q0 -89 64 -153t155 -64q89 0 153 64t64 153q0 90 -63.5 153.5t-153.5 63.5q-91 0 -155 -63t-64 -154z" />
    <glyph glyph-name="A" unicode="A" horiz-adv-x="1406" 
d="M1339 92q11 -25 1.5 -50.5t-33.5 -35.5q-15 -6 -27 -6q-43 0 -59 39l-154 348h-727l-152 -348q-10 -25 -35.5 -34.5t-50.5 1.5q-25 10 -35 35.5t1 50.5l575 1315q19 39 62 39t59 -39zM397 518h613l-305 701z" />
    <glyph glyph-name="B" unicode="B" horiz-adv-x="1210" 
d="M920 778q103 -52 166 -150.5t63 -217.5q0 -169 -120.5 -289.5t-289.5 -120.5h-612q-28 0 -47 19t-19 47v1314q0 28 19 47t47 19h549q157 0 268 -111t111 -266q0 -86 -36 -161.5t-99 -129.5zM924 1069q0 102 -73 175t-175 73h-483v-498h483q103 0 175.5 73.5t72.5 176.5z
M739 131q115 0 197 81.5t82 197.5t-82 198t-197 82h-546v-559h546z" />
    <glyph glyph-name="C" unicode="C" horiz-adv-x="1406" 
d="M784 0q157 0 299.5 65t245.5 183q18 20 16.5 46.5t-22.5 45.5q-20 17 -46.5 15.5t-45.5 -21.5q-85 -97 -201.5 -150t-245.5 -53q-160 0 -296.5 79.5t-215.5 216t-79 296.5q0 121 47 231t126 189.5t188.5 126.5t229.5 47q129 0 245.5 -53t201.5 -150q19 -22 45.5 -23.5
t46.5 17.5q21 17 22.5 43.5t-16.5 48.5q-103 117 -245.5 181.5t-299.5 64.5q-195 0 -361.5 -97t-264 -263.5t-97.5 -362.5t97.5 -362.5t264 -263.5t361.5 -97z" />
    <glyph glyph-name="D" unicode="D" horiz-adv-x="1243" 
d="M459 0q196 0 362.5 97t263.5 263.5t97 362.5t-97 362.5t-263.5 263.5t-362.5 97h-332q-28 0 -47 -19t-19 -47v-1314q0 -28 19 -47t47 -19h332zM193 131v1186h266q161 0 298 -79.5t216.5 -216.5t79.5 -298q0 -160 -79.5 -296.5t-216.5 -216t-298 -79.5h-266z" />
    <glyph glyph-name="E" unicode="E" horiz-adv-x="1112" 
d="M985 131q26 0 46 -19.5t20 -45.5q0 -27 -19.5 -46.5t-46.5 -19.5h-858q-28 0 -47 19t-19 47v1314q0 28 19 47t47 19h858q27 0 46.5 -19.5t19.5 -46.5q0 -26 -19.5 -44.5t-46.5 -18.5h-792v-498h571q26 0 45.5 -18.5t19.5 -44.5q0 -28 -19.5 -47t-45.5 -19h-571v-559h792z
" />
    <glyph glyph-name="F" unicode="F" horiz-adv-x="1112" 
d="M985 1446q27 0 46.5 -19.5t19.5 -46.5q0 -26 -19.5 -44.5t-46.5 -18.5h-792v-498h571q28 0 46.5 -18.5t18.5 -44.5q0 -28 -18.5 -47t-46.5 -19h-571v-624q0 -27 -19.5 -46.5t-46.5 -19.5q-28 0 -47 19t-19 47v1314q0 28 19 47t47 19h858z" />
    <glyph glyph-name="G" unicode="G" horiz-adv-x="1406" 
d="M784 0q157 0 299.5 65t245.5 183q17 20 17 43v381q0 28 -19 46.5t-47 18.5h-444q-28 0 -47 -18.5t-19 -46.5t19 -47t47 -19h378v-291q-83 -88 -195 -136t-235 -48q-160 0 -296.5 79.5t-215.5 216t-79 296.5q0 121 47 231t126 189.5t188.5 126.5t229.5 47q129 0 245.5 -53
t201.5 -150q19 -22 45.5 -23.5t46.5 17.5q21 17 22.5 43.5t-16.5 48.5q-103 117 -245.5 181.5t-299.5 64.5q-195 0 -361.5 -97t-264 -263.5t-97.5 -362.5t97.5 -362.5t264 -263.5t361.5 -97z" />
    <glyph glyph-name="H" unicode="H" horiz-adv-x="1241" 
d="M1114 1446q27 0 46.5 -19.5t19.5 -46.5v-1314q0 -27 -19.5 -46.5t-46.5 -19.5q-28 0 -46.5 19t-18.5 47v540h-856v-540q0 -27 -19.5 -46.5t-46.5 -19.5q-28 0 -47 19t-19 47v1314q0 28 19 47t47 19q27 0 46.5 -19.5t19.5 -46.5v-643h856v643q0 28 18.5 47t46.5 19z" />
    <glyph glyph-name="I" unicode="I" horiz-adv-x="274" 
d="M137 0q28 0 47 19t19 47v1314q0 28 -19 47t-47 19t-46.5 -19t-18.5 -47v-1314q0 -28 18.5 -47t46.5 -19z" />
    <glyph glyph-name="J" unicode="J" horiz-adv-x="870" 
d="M414 0q163 0 279 115.5t116 279.5v985q0 27 -19.5 46.5t-46.5 19.5q-28 0 -46.5 -19t-18.5 -47v-985q0 -109 -77.5 -186.5t-186.5 -77.5q-72 0 -134.5 36t-97.5 99q-12 24 -38.5 32t-49.5 -5q-23 -14 -30 -39.5t6 -50.5q53 -94 145 -148.5t199 -54.5z" />
    <glyph glyph-name="K" unicode="K" horiz-adv-x="1120" 
d="M1038 111q20 -19 20 -46t-20 -47q-18 -18 -45 -18q-29 0 -47 18l-641 644l-112 -113v-483q0 -28 -19 -47t-47 -19t-47 19t-19 47v1314q0 28 19 47t47 19t47 -19t19 -47v-645l692 692q20 19 47 19t47 -19q19 -19 19 -46t-19 -46l-582 -581z" />
    <glyph glyph-name="L" unicode="L" horiz-adv-x="972" 
d="M846 0q28 0 46.5 19t18.5 47q0 27 -19 46t-46 19h-653v1249q0 28 -19 47t-47 19q-27 0 -46.5 -19.5t-19.5 -46.5v-1314q0 -27 19.5 -46.5t46.5 -19.5h719z" />
    <glyph glyph-name="M" unicode="M" horiz-adv-x="1437" 
d="M1311 0q27 0 46 19t19 47v1314q0 22 -13.5 40t-33.5 24q-21 6 -41.5 -1.5t-32.5 -25.5l-536 -799l-539 799q-10 18 -30 25.5t-41 1.5t-34.5 -24t-13.5 -40v-1314q0 -28 19 -47t47 -19t47 19t19 47v1101l471 -702q19 -29 55 -29q34 0 53 29l473 702v-1101q0 -28 19 -47
t47 -19z" />
    <glyph glyph-name="N" unicode="N" horiz-adv-x="1290" 
d="M1163 0q7 0 23 4q43 13 43 62v1314q0 28 -19 47t-47 19q-27 0 -46 -19t-19 -47v-1126l-920 1167q-12 17 -33 23t-39 0q-45 -17 -45 -64v-1314q0 -28 19 -47t47 -19t47 19t19 47v1126l919 -1167q19 -25 51 -25z" />
    <glyph glyph-name="O" unicode="O" horiz-adv-x="1568" 
d="M784 0q196 0 362.5 97t263.5 263.5t97 362.5t-97 362.5t-263.5 263.5t-362.5 97t-362.5 -97t-263.5 -263.5t-97 -362.5t97 -362.5t263.5 -263.5t362.5 -97zM784 1317q161 0 297.5 -79.5t215.5 -216.5t79 -298q0 -160 -79 -296.5t-215.5 -216t-297.5 -79.5
q-121 0 -230.5 47t-188.5 126.5t-125.5 189t-46.5 229.5q0 121 46.5 231t125.5 189.5t188.5 126.5t230.5 47z" />
    <glyph glyph-name="P" unicode="P" horiz-adv-x="1130" 
d="M565 1446q137 0 253 -67.5t183.5 -184t67.5 -254.5q0 -209 -147.5 -356.5t-356.5 -147.5h-372v-370q0 -28 -19 -47t-47 -19t-47 19t-19 47v1314q0 28 19 47t47 19h438zM565 565q154 0 264.5 110.5t110.5 264.5q0 155 -110.5 266t-264.5 111h-372v-752h372z" />
    <glyph glyph-name="Q" unicode="Q" horiz-adv-x="1568" 
d="M1489 111q19 -19 19 -46t-19 -47q-18 -18 -47 -18q-27 0 -45 18l-150 150q-202 -168 -463 -168q-196 0 -362.5 97t-263.5 263.5t-97 362.5t97 362.5t263.5 263.5t362.5 97t362.5 -97t263.5 -263.5t97 -362.5q0 -261 -168 -463zM193 723q0 -160 79 -296.5t215.5 -216
t296.5 -79.5q161 0 298 79.5t216.5 216t79.5 296.5q0 161 -79.5 298t-216.5 216.5t-298 79.5q-120 0 -229.5 -47t-188.5 -126.5t-126 -189.5t-47 -231z" />
    <glyph glyph-name="R" unicode="R" horiz-adv-x="1130" 
d="M700 455l332 -344q19 -20 18.5 -47t-20.5 -46q-18 -18 -45 -18q-30 0 -47 20l-401 416h-344v-370q0 -28 -19 -47t-47 -19t-47 19t-19 47v1314q0 28 19 47t47 19h438q137 0 253 -67.5t183.5 -184t67.5 -254.5q0 -171 -104 -305.5t-265 -179.5zM193 1317v-752h372
q155 0 265 110.5t110 264.5q0 155 -110 266t-265 111h-372z" />
    <glyph glyph-name="S" unicode="S" horiz-adv-x="1021" 
d="M510 0q107 0 194.5 35t142.5 93t84.5 130.5t29.5 149.5q0 68 -17.5 124t-50.5 95t-72 69t-89.5 51.5t-95 36.5t-96.5 30q-3 1 -5 1q-49 14 -79 24t-67.5 24t-59 27t-44.5 31t-35 38.5t-19.5 47.5t-7.5 60q0 99 74.5 174.5t212.5 75.5q139 0 214 -75.5t75 -174.5
q0 -28 18.5 -47t46.5 -19t47 19t19 47q0 72 -27.5 139t-78.5 121t-132.5 86.5t-181.5 32.5q-99 0 -180.5 -32.5t-132 -86.5t-78 -121t-27.5 -139q0 -195 178 -292q70 -39 228 -85q73 -21 114.5 -35.5t89 -38t71.5 -50t40 -66.5t16 -92q0 -51 -19.5 -99.5t-57 -88.5
t-100.5 -64.5t-142 -24.5t-141.5 24.5t-99.5 64.5t-56.5 88t-19.5 100q0 27 -19.5 46t-46.5 19q-28 0 -47 -18.5t-19 -46.5q0 -77 29.5 -149.5t84 -130.5t141.5 -93t194 -35z" />
    <glyph glyph-name="T" unicode="T" horiz-adv-x="1230" 
d="M1104 1446q28 0 46.5 -19t18.5 -47q0 -26 -18.5 -44.5t-46.5 -18.5h-424v-1251q0 -28 -19 -47t-45 -19q-28 0 -46.5 19t-18.5 47v1251h-424q-28 0 -47 18.5t-19 44.5q0 28 19 47t47 19h977z" />
    <glyph glyph-name="U" unicode="U" horiz-adv-x="1284" 
d="M641 0q158 0 292 78t212 212t78 292v798q0 28 -19 47t-47 19t-46.5 -19t-18.5 -47v-798q0 -188 -132 -319.5t-319 -131.5q-186 0 -318.5 132t-132.5 319v798q0 28 -18.5 47t-46.5 19q-26 0 -45 -19t-19 -47v-798q0 -119 46 -226.5t124 -185.5t185 -124t225 -46z" />
    <glyph glyph-name="V" unicode="V" horiz-adv-x="1226" 
d="M612 0q46 0 62 43l487 1315q9 26 -2.5 50.5t-36.5 33.5q-26 9 -50.5 -1.5t-33.5 -35.5l-426 -1151l-426 1151q-9 25 -33.5 35.5t-50.5 1.5q-25 -9 -35.5 -33.5t-0.5 -50.5l485 -1315q16 -43 61 -43z" />
    <glyph glyph-name="W" unicode="W" horiz-adv-x="1837" 
d="M1315 0h2q21 0 38 13t23 34l396 1315q8 27 -4.5 51t-38.5 31q-27 8 -51 -4.5t-31 -38.5l-340 -1131l-328 875q-7 19 -24 30t-37 11q-46 0 -62 -41l-328 -875l-342 1131q-7 26 -30 38.5t-49 4.5t-39.5 -32t-6.5 -50l398 -1315q6 -20 22.5 -33.5t36.5 -13.5q48 0 64 43
l336 893l333 -893q16 -43 62 -43z" />
    <glyph glyph-name="X" unicode="X" horiz-adv-x="1290" 
d="M729 723l485 -617q17 -22 14.5 -48.5t-24.5 -43.5q-17 -14 -41 -14q-29 0 -51 25l-467 593l-467 -593q-19 -25 -51 -25q-24 0 -41 14q-21 18 -24 44t14 48l487 617l-487 618q-17 22 -14 48.5t24 44.5q21 15 48 11.5t44 -24.5l467 -592l467 592q17 21 44 24.5t48 -11.5
q22 -17 24.5 -44t-14.5 -49z" />
    <glyph glyph-name="Y" unicode="Y" horiz-adv-x="1157" 
d="M1065 1436q23 -15 28 -42.5t-10 -50.5l-440 -641v-636q0 -28 -18.5 -47t-46.5 -19q-27 0 -46.5 19.5t-19.5 46.5v636l-438 641q-15 23 -10.5 50.5t26.5 42.5q23 15 50 9.5t42 -28.5l396 -577l397 577q15 23 41.5 28.5t48.5 -9.5z" />
    <glyph glyph-name="Z" unicode="Z" horiz-adv-x="1296" 
d="M1171 0q26 0 45 19t19 47q0 26 -19 45.5t-45 19.5h-913l928 1210q22 32 6 70q-21 35 -59 35h-936q-28 0 -47 -19t-19 -47q0 -26 19 -44.5t47 -18.5h804l-925 -1213q-25 -28 -8 -67q19 -37 59 -37h1044z" />
    <glyph glyph-name="bracketleft" unicode="[" horiz-adv-x="499" 
d="M373 -184q28 0 46.5 18.5t18.5 46.5q0 27 -19 46.5t-46 19.5h-180v1550h180q27 0 46 19.5t19 46.5q0 28 -18.5 46.5t-46.5 18.5h-246q-28 0 -47 -18.5t-19 -46.5v-1682q0 -28 19 -46.5t47 -18.5h246z" />
    <glyph glyph-name="backslash" unicode="\" horiz-adv-x="718" 
d="M614 6q26 9 37 33t2 51l-465 1274q-9 26 -33 37t-51 2q-26 -9 -36.5 -33t-1.5 -51l464 -1274q9 -26 33 -37t51 -2z" />
    <glyph glyph-name="bracketright" unicode="]" horiz-adv-x="499" 
d="M127 -184h246q28 0 46.5 18.5t18.5 46.5v1682q0 28 -18.5 46.5t-46.5 18.5h-246q-28 0 -47 -18.5t-19 -46.5q0 -27 19.5 -46.5t46.5 -19.5h180v-1550h-180q-27 0 -46.5 -19.5t-19.5 -46.5q0 -28 19 -46.5t47 -18.5z" />
    <glyph glyph-name="asciicircum" unicode="^" horiz-adv-x="614" 
d="M61 1219q0 -42 37 -58q23 -12 49.5 -3.5t36.5 32.5l123 244l121 -244q12 -24 38.5 -32.5t49.5 3.5q24 10 33 36.5t-2 49.5l-180 361q-19 37 -60 37q-40 0 -59 -37l-180 -361q-7 -14 -7 -28z" />
    <glyph glyph-name="underscore" unicode="_" horiz-adv-x="909" 
d="M782 -188q28 0 47 18.5t19 46.5t-19 47t-47 19h-655q-28 0 -47 -19t-19 -47t19 -46.5t47 -18.5h655z" />
    <glyph glyph-name="grave" unicode="`" horiz-adv-x="532" 
d="M403 1212q23 0 41.5 14.5t24.5 37.5q5 27 -9.5 49t-41.5 28l-277 62q-27 5 -49.5 -9.5t-28.5 -41.5q-5 -27 10 -49.5t42 -28.5l276 -62h12z" />
    <glyph glyph-name="a" unicode="a" horiz-adv-x="1169" 
d="M1042 1106q28 0 47 -19t19 -45v-976q0 -28 -19 -47t-47 -19t-46.5 19t-18.5 47v114q-71 -86 -172.5 -133t-220.5 -47q-146 0 -266 72t-188.5 199t-68.5 282t68.5 282t188.5 199t266 72q118 0 219.5 -47t173.5 -131v114q0 26 18.5 45t46.5 19zM584 131q168 0 280.5 121
t112.5 301q0 182 -112 303t-281 121q-167 0 -279 -121.5t-112 -302.5q0 -180 112 -301t279 -121z" />
    <glyph glyph-name="b" unicode="b" horiz-adv-x="1169" 
d="M584 1106q224 0 374 -158.5t150 -394.5t-150 -394.5t-374 -158.5q-118 0 -219 47t-172 133v-114q0 -27 -19.5 -46.5t-46.5 -19.5q-28 0 -47 19t-19 47v1314q0 28 19 47t47 19q27 0 46.5 -19.5t19.5 -46.5v-452q72 85 172.5 131.5t218.5 46.5zM584 131q168 0 280.5 121
t112.5 301q0 182 -112 303t-281 121q-167 0 -279 -121.5t-112 -302.5q0 -180 112 -301t279 -121z" />
    <glyph glyph-name="c" unicode="c" horiz-adv-x="1079" 
d="M584 0q129 0 239.5 57.5t182.5 161.5q15 22 10.5 48.5t-27.5 41.5q-21 15 -48 11t-42 -27q-115 -162 -315 -162q-167 0 -280.5 121t-113.5 301q0 181 113 302.5t281 121.5q198 0 315 -164q15 -22 41.5 -26.5t48.5 10.5q23 15 27.5 42t-10.5 50q-72 104 -182.5 160.5
t-239.5 56.5q-146 0 -266 -72t-188.5 -199t-68.5 -282t68.5 -282t188.5 -199t266 -72z" />
    <glyph glyph-name="d" unicode="d" horiz-adv-x="1169" 
d="M1044 1446q26 0 45 -19t19 -47v-1314q0 -28 -19 -47t-45 -19q-28 0 -46.5 19t-18.5 47v114q-71 -86 -172.5 -133t-220.5 -47q-224 0 -374.5 158.5t-150.5 394.5t150.5 394.5t374.5 158.5q118 0 219.5 -47t173.5 -131v452q0 28 18.5 47t46.5 19zM586 131q167 0 280 121
t113 301q0 181 -113 302.5t-280 121.5t-280 -121.5t-113 -302.5q0 -180 113 -301t280 -121z" />
    <glyph glyph-name="e" unicode="e" horiz-adv-x="1159" 
d="M594 0q138 0 253 64.5t187 181.5q14 23 7.5 50t-29.5 40q-23 14 -49 8t-41 -29q-52 -88 -138 -136t-190 -48q-151 0 -259 100t-130 256h817q27 0 46 19.5t19 46.5q0 242 -141.5 397.5t-361.5 155.5q-109 0 -206 -42.5t-167 -121.5q-139 -158 -139 -389q0 -155 67.5 -282
t187.5 -199t267 -72zM205 618q20 159 124.5 259t254.5 100q149 0 249 -99t119 -260h-747z" />
    <glyph glyph-name="f" unicode="f" horiz-adv-x="706" 
d="M580 1044q28 0 46.5 -18.5t18.5 -46.5q0 -27 -19 -46.5t-46 -19.5h-258v-847q0 -27 -19.5 -46.5t-46.5 -19.5q-28 0 -47 19t-19 47v847h-63q-27 0 -46.5 19.5t-19.5 46.5q0 28 19 46.5t47 18.5h63v95q0 126 90 215.5t216 89.5q56 0 108 -21q25 -9 35.5 -33.5t1.5 -50.5
q-9 -25 -34 -35.5t-50 -0.5q-33 10 -61 10q-72 0 -123 -51t-51 -123v-95h258z" />
    <glyph glyph-name="g" unicode="g" horiz-adv-x="1169" 
d="M1042 1106q26 0 46 -19t20 -45v-1062q0 -147 -73 -272t-198 -198t-272 -73q-150 0 -277.5 75t-197.5 205q-13 23 -5.5 48.5t30.5 39.5t49.5 6.5t38.5 -30.5q56 -99 152.5 -156t209.5 -57q170 0 291 121t121 291v200q-71 -86 -172.5 -133t-220.5 -47q-224 0 -373.5 158.5
t-149.5 394.5t149.5 394.5t373.5 158.5q118 0 219.5 -47t173.5 -131v114q0 26 18.5 45t46.5 19zM584 131q167 0 280 121t113 301q0 181 -113 302.5t-280 121.5q-168 0 -281 -121.5t-113 -302.5q0 -180 113.5 -301t280.5 -121z" />
    <glyph glyph-name="h" unicode="h" horiz-adv-x="1017" 
d="M510 1106q190 0 318 -135t128 -336v-569q0 -28 -18.5 -47t-46.5 -19q-27 0 -46.5 19.5t-19.5 46.5v569q0 146 -90 244t-225 98t-226 -98t-91 -244v-10v-7v-552q0 -28 -19 -47t-47 -19q-27 0 -46.5 19.5t-19.5 46.5v1314q0 27 19.5 46.5t46.5 19.5q28 0 47 -19t19 -47
v-405q128 131 317 131z" />
    <glyph glyph-name="i" unicode="i" horiz-adv-x="286" 
d="M143 1350q-29 0 -50 -21t-21 -49q0 -29 21 -49.5t50 -20.5q31 0 51.5 20.5t20.5 49.5q0 28 -21 49t-51 21zM143 0q28 0 47 19t19 47v976q0 26 -19 45t-47 19q-26 0 -45.5 -19t-19.5 -45v-976q0 -28 19 -47t46 -19z" />
    <glyph glyph-name="j" unicode="j" horiz-adv-x="634" 
d="M500 1348q-29 0 -50.5 -20.5t-21.5 -49.5q0 -28 21.5 -49t50.5 -21q30 0 51.5 21t21.5 49q0 29 -21 49.5t-52 20.5zM301 -274q109 0 186.5 77.5t77.5 186.5v1050q0 28 -18.5 47t-46.5 19q-26 0 -45 -19t-19 -47v-1050q0 -55 -39.5 -94t-95.5 -39q-76 0 -117 67
q-13 24 -39 31.5t-49 -4.5q-24 -13 -31.5 -39t5.5 -49q35 -64 97 -100.5t134 -36.5z" />
    <glyph glyph-name="k" unicode="k" horiz-adv-x="935" 
d="M862 104q15 -23 11.5 -49t-25.5 -43q-18 -12 -39 -12q-29 0 -53 27l-324 442q-101 -46 -239 -55v-348q0 -28 -19 -47t-47 -19t-47 19t-19 47v1314q0 28 19 47t47 19t47 -19t19 -47v-837q130 12 225 63q4 4 8 6q60 34 108 83.5t82 111t57.5 121t43.5 131.5q6 26 30 39.5
t50 5.5t39 -31t6 -49q-97 -344 -295 -489z" />
    <glyph glyph-name="l" unicode="l" horiz-adv-x="274" 
d="M137 1446q28 0 47 -19t19 -47v-1314q0 -28 -19 -47t-47 -19t-46.5 19t-18.5 47v1314q0 28 18.5 47t46.5 19z" />
    <glyph glyph-name="m" unicode="m" horiz-adv-x="1681" 
d="M1212 1106q177 0 292.5 -133.5t115.5 -337.5v-569q0 -28 -19 -47t-47 -19t-46.5 19t-18.5 47v569q0 151 -77 246.5t-200 95.5q-133 0 -220 -97t-87 -245v-10v-7v-552q0 -28 -18.5 -47t-46.5 -19q-26 0 -45 19t-19 47v569q0 151 -77 246.5t-199 95.5q-133 0 -220 -97
t-87 -245v-10v-7v-552q0 -27 -19.5 -46.5t-46.5 -19.5q-28 0 -47 19t-19 47v976q0 26 19 45t47 19q26 0 46 -19t20 -45v-63q124 127 307 127q111 0 201 -55.5t143 -153.5q20 36 49 68q123 141 319 141z" />
    <glyph glyph-name="n" unicode="n" horiz-adv-x="1015" 
d="M838 965q116 -131 116 -330v-569q0 -28 -18.5 -47t-44.5 -19q-28 0 -47 19t-19 47v569q0 148 -87 245t-220 97q-138 0 -233 -99.5t-95 -242.5v-10v-7v-552q0 -28 -18.5 -47t-46.5 -19q-26 0 -45 19t-19 47v976q0 26 19 45t45 19q27 0 46 -19t19 -45v-73q134 137 328 137
q197 0 320 -141z" />
    <glyph glyph-name="o" unicode="o" 
d="M614 0q112 0 214.5 44t176.5 118t118 176.5t44 214.5t-44 214.5t-118 176.5t-176.5 118t-214.5 44t-214.5 -44t-176.5 -118t-118 -176.5t-44 -214.5t44 -214.5t118 -176.5t176.5 -118t214.5 -44zM614 977q175 0 298.5 -124.5t123.5 -299.5t-123.5 -298.5t-298.5 -123.5
t-298 123.5t-123 298.5t123.5 299.5t297.5 124.5z" />
    <glyph glyph-name="p" unicode="p" horiz-adv-x="1169" 
d="M586 1106q146 0 266 -72t188 -199t68 -282t-68 -282t-188 -199t-266 -72q-119 0 -220.5 47t-172.5 133v-678q0 -28 -19 -46.5t-47 -18.5q-27 0 -46.5 19t-19.5 46v1540q0 26 20 45t46 19q28 0 47 -19t19 -45v-114q72 84 173.5 131t219.5 47zM586 131q167 0 280 121
t113 301q0 181 -113 302.5t-280 121.5q-169 0 -281 -121t-112 -303q0 -180 112.5 -301t280.5 -121z" />
    <glyph glyph-name="q" unicode="q" horiz-adv-x="1169" 
d="M1042 1106q27 0 46.5 -19.5t19.5 -46.5v-1538q0 -27 -19.5 -46t-46.5 -19q-28 0 -46.5 18.5t-18.5 46.5v678q-71 -86 -172.5 -133t-220.5 -47q-146 0 -266 72t-188.5 199t-68.5 282t68.5 282t188.5 199t266 72q119 0 220.5 -47t172.5 -133v114q0 28 18.5 47t46.5 19z
M584 131q168 0 280.5 120.5t112.5 301.5t-113 302.5t-280 121.5q-168 0 -281 -121.5t-113 -302.5t113 -301.5t281 -120.5z" />
    <glyph glyph-name="r" unicode="r" horiz-adv-x="634" 
d="M508 1106q28 0 46.5 -19t18.5 -45q0 -28 -18.5 -46.5t-46.5 -18.5q-135 0 -226.5 -98t-91.5 -244v-10v-7v-552q0 -28 -18.5 -47t-46.5 -19q-26 0 -45 19t-19 47v976q0 26 19 45t45 19q27 0 46 -19t19 -45v-67q128 131 318 131z" />
    <glyph glyph-name="s" unicode="s" horiz-adv-x="821" 
d="M399 0q163 0 267 100q94 94 94 219q0 38 -7.5 72t-18.5 59.5t-31.5 48.5t-37 39t-46.5 31.5t-48 24t-52.5 19.5t-50.5 15t-50 13q-130 32 -177.5 63.5t-47.5 102.5q0 27 11.5 55t34 54.5t64.5 43.5t96 17q73 0 122 -29.5t69 -70.5q12 -25 37.5 -34t50.5 3q25 10 34 35.5
t-3 50.5q-38 81 -121 127.5t-189 46.5q-151 0 -249 -94q-89 -89 -89 -205q0 -44 11.5 -81t27 -62.5t45 -48.5t51.5 -36t63 -27.5t62 -20.5t64 -17q139 -35 191.5 -72.5t52.5 -122.5q0 -75 -62 -131.5t-168 -56.5q-83 0 -137.5 33t-75.5 80q-10 24 -35.5 33.5t-50.5 -1.5
q-25 -12 -34 -37.5t2 -50.5q40 -88 128.5 -138t202.5 -50z" />
    <glyph glyph-name="t" unicode="t" horiz-adv-x="727" 
d="M643 184q-20 18 -46.5 16.5t-45.5 -22.5q-38 -47 -100 -47q-56 0 -96 39t-40 94v713h232q28 0 46.5 18.5t18.5 46.5q0 26 -19 45t-46 19h-232v209q0 28 -18.5 46.5t-46.5 18.5q-27 0 -46.5 -19t-19.5 -46v-209h-59q-26 0 -45 -19t-19 -45q0 -28 18.5 -46.5t45.5 -18.5h59
v-713q0 -109 78.5 -186.5t188.5 -77.5q120 0 200 92q18 22 15.5 48.5t-23.5 43.5z" />
    <glyph glyph-name="u" unicode="u" horiz-adv-x="1017" 
d="M891 1106q27 0 46 -19t19 -45v-976q0 -28 -18.5 -47t-46.5 -19t-47 19t-19 47v73q-133 -139 -325 -139q-195 0 -320 141q-119 135 -119 332v569q0 26 19 45t47 19t47 -19t19 -45v-569q0 -149 86.5 -245.5t220.5 -96.5q137 0 231 99t94 243v8v6v555q0 26 19 45t47 19z" />
    <glyph glyph-name="v" unicode="v" horiz-adv-x="1038" 
d="M520 0q21 0 37.5 11t22.5 30l393 977q9 25 -1.5 50t-35.5 34q-25 11 -50 0t-34 -37l-332 -823l-332 823q-9 26 -34 37t-50 0q-26 -9 -36.5 -34t0.5 -50l391 -977q7 -19 24 -30t37 -11z" />
    <glyph glyph-name="w" unicode="w" horiz-adv-x="1523" 
d="M1079 0h2q48 3 60 45l319 977q8 25 -4.5 49t-38.5 33q-25 8 -49 -4.5t-33 -38.5l-262 -807l-252 612q-16 39 -59 39q-46 0 -62 -39l-249 -612l-263 807q-9 26 -33.5 38.5t-50.5 4.5q-25 -9 -37 -33t-4 -49l318 -977q6 -20 22 -31.5t37 -13.5q49 0 64 41l258 627l258 -627
q16 -41 59 -41z" />
    <glyph glyph-name="x" unicode="x" horiz-adv-x="1028" 
d="M598 553l354 -447q17 -22 14 -48t-24 -44q-17 -14 -41 -14q-32 0 -51 25l-336 424l-336 -424q-19 -25 -51 -25q-24 0 -41 14q-21 18 -24 44t14 48l354 447l-354 448q-17 22 -14 48.5t24 44.5q21 15 48 11.5t44 -24.5l336 -422l336 422q17 21 44 24.5t48 -11.5
q21 -18 24 -44.5t-14 -48.5z" />
    <glyph glyph-name="y" unicode="y" horiz-adv-x="1030" 
d="M903 1106q26 0 46 -19t20 -45v-1126q0 -130 -64.5 -240.5t-175 -174.5t-240.5 -64q-131 0 -243 66.5t-176 181.5q-13 23 -5.5 49t31.5 39q23 13 49.5 5t38.5 -32q46 -83 127.5 -130.5t177.5 -47.5q145 0 247 101.5t102 246.5v219q-132 -135 -322 -135q-194 0 -324.5 137
t-130.5 342v563q0 26 20 45t46 19q28 0 47 -19t19 -45v-563q0 -149 92.5 -248.5t230.5 -99.5q137 0 229.5 99.5t92.5 248.5v563q0 26 19 45t46 19z" />
    <glyph glyph-name="z" unicode="z" horiz-adv-x="1093" 
d="M967 0q27 0 46 19t19 47q0 26 -19.5 45.5t-45.5 19.5h-701l729 868q27 34 11 70q-16 37 -60 37h-772q-28 0 -46.5 -19t-18.5 -45q0 -28 18.5 -46.5t46.5 -18.5h631l-729 -871q-25 -28 -8 -69q16 -37 59 -37h840z" />
    <glyph glyph-name="braceleft" unicode="{" horiz-adv-x="456" 
d="M330 0q8 0 20 4q26 7 38 31.5t3 50.5q-91 280 -100 584q0 32 -25 53q25 25 27 55q6 287 98 584q9 25 -3 49t-38 33q-27 8 -51 -4.5t-31 -38.5q-94 -290 -106 -586l-8 -2q-22 -9 -33 -14t-28 -16t-24.5 -26t-7.5 -34q0 -20 8 -35t24 -25t28.5 -15.5t32.5 -12.5q1 -1 4 -2
t4 -2q12 -292 106 -586q6 -20 23.5 -32.5t38.5 -12.5z" />
    <glyph glyph-name="bar" unicode="|" horiz-adv-x="253" 
d="M127 -246q28 0 47 19t19 47v1560q0 28 -19 47t-47 19t-47 -19t-19 -47v-1560q0 -28 19 -47t47 -19z" />
    <glyph glyph-name="braceright" unicode="}" horiz-adv-x="456" 
d="M127 0q21 0 38 12.5t23 32.5q95 297 107 586q1 1 4 2t4 2q20 7 32.5 12.5t28 15.5t23.5 25t8 35t-7.5 34.5t-24 25.5t-27.5 16t-33 14l-8 2q-12 292 -107 586q-7 26 -31 38.5t-51 4.5q-26 -9 -37.5 -33t-2.5 -49q92 -297 98 -584q3 -32 26 -55q-24 -21 -24 -53
q-9 -304 -100 -584q-9 -26 2.5 -50.5t37.5 -31.5q12 -4 21 -4z" />
    <glyph glyph-name="asciitilde" unicode="~" horiz-adv-x="817" 
d="M551 522q57 0 111 43q18 15 30 15q26 0 45 19t19 46q0 26 -19 46t-45 20q-58 0 -112 -43q-18 -15 -29 -15q-13 0 -31 15q-54 43 -110 43q-12 0 -23 -1.5t-21.5 -4.5t-17.5 -5.5t-16 -8t-12.5 -7.5t-12.5 -8.5t-10 -7.5q-17 -15 -29 -15q-10 0 -30 15q-54 43 -111 43
q-27 0 -46.5 -19.5t-19.5 -46.5q0 -28 19 -46.5t47 -18.5q11 0 29 -15l12 -9q11 -8 14.5 -10t15.5 -8.5t20.5 -8.5t22 -4.5t27.5 -2.5q57 0 111 43q20 15 31 15q10 0 28 -15q54 -43 113 -43z" />
    <glyph glyph-name="exclamdown" unicode="&#xa1;" horiz-adv-x="299" 
d="M150 1298q37 0 62.5 23.5t25.5 58.5q0 36 -25.5 60t-62.5 24t-63 -24t-26 -60q0 -35 26 -58.5t63 -23.5zM150 1171q-27 0 -46.5 -19t-19.5 -46v-1040q0 -27 19.5 -46.5t46.5 -19.5q28 0 46.5 19t18.5 47v1040q0 28 -18.5 46.5t-46.5 18.5z" />
    <glyph glyph-name="cent" unicode="&#xa2;" horiz-adv-x="976" 
d="M893 500q22 -17 23.5 -43.5t-17.5 -48.5q-68 -77 -162.5 -120.5t-197.5 -43.5q-27 0 -39 2l-23 -189q-3 -25 -21.5 -41t-43.5 -16h-6q-28 3 -44.5 24.5t-13.5 49.5l23 200q-137 52 -223.5 174.5t-86.5 274.5q0 181 120 316.5t296 158.5l23 191q3 27 23.5 43.5t47.5 13.5
t44 -24t14 -48l-21 -176q171 -24 291 -160q19 -20 17.5 -46.5t-23.5 -45.5q-20 -18 -46.5 -16.5t-45.5 22.5q-84 97 -207 115l-80 -692h25q75 0 144 31t118 88q19 22 45.5 23.5t46.5 -17.5zM190 723q0 -101 54 -185.5t143 -127.5l76 653q-118 -27 -195.5 -122t-77.5 -218z
" />
    <glyph glyph-name="sterling" unicode="&#xa3;" horiz-adv-x="1044" 
d="M918 131q26 0 45.5 -19.5t19.5 -45.5q0 -28 -19.5 -47t-45.5 -19h-791q-41 0 -57 37q-19 35 6 67q219 283 225 465q2 48 -11 95.5t-27.5 76.5t-43.5 80q-27 46 -42.5 76t-29.5 77t-14 93q0 72 27.5 139t78 121t132 86.5t180.5 32.5q200 0 315 -137q103 -115 103 -267
q0 -28 -19 -46.5t-47 -18.5t-46.5 18.5t-18.5 46.5q0 33 -9.5 68.5t-31.5 73t-54 67t-82 48t-110 18.5q-138 0 -212.5 -75.5t-74.5 -174.5q0 -43 17 -83.5t51 -96.5q61 -106 76 -154h288q28 0 47 -18.5t19 -46.5t-19 -47t-47 -19h-264q7 -204 -176 -471h662z" />
    <glyph glyph-name="yen" unicode="&#xa5;" horiz-adv-x="866" 
d="M793 920l-295 -428v-70h118q26 0 45 -19t19 -47t-19 -46.5t-45 -18.5h-118v-225q0 -28 -19 -47t-45 -19q-28 0 -46.5 19t-18.5 47v225h-117q-28 0 -47 18.5t-19 46.5t19 47t47 19h117v70l-295 428q-15 23 -10.5 50t26.5 42q23 15 50 9.5t42 -28.5l252 -366l250 366
q15 23 42 28.5t50 -9.5q22 -15 27 -42t-10 -50z" />
    <glyph glyph-name="brokenbar" unicode="&#xa6;" horiz-adv-x="253" 
d="M127 635q28 0 47 18.5t19 46.5v680q0 28 -19 47t-47 19t-47 -19t-19 -47v-680q0 -28 19 -46.5t47 -18.5zM121 -246q28 0 46.5 19t18.5 47v598q0 28 -18.5 46.5t-46.5 18.5t-47 -18.5t-19 -46.5v-598q0 -28 19 -47t47 -19z" />
    <glyph glyph-name="section" unicode="&#xa7;" horiz-adv-x="872" 
d="M811 692q0 -101 -78 -170q-33 -29 -53 -39q61 -44 96 -103t35 -124q0 -103 -78 -172q-90 -84 -250 -84q-37 0 -53 2q-158 15 -263.5 105t-105.5 210q0 27 19.5 46.5t46.5 19.5q26 0 46 -20t20 -46q0 -68 71.5 -121t177.5 -63q63 -6 117 6.5t86 40.5q35 35 35 76
q0 66 -73 120t-177 64h-2q-157 15 -262 105t-105 209q0 102 76 172q24 21 53 37q-129 95 -129 229q0 100 76 170q54 48 133.5 69.5t171.5 12.5q157 -15 263 -105.5t106 -208.5q0 -27 -19.5 -46t-46.5 -19q-28 0 -46.5 18.5t-18.5 46.5q0 66 -73 120.5t-177 64.5
q-137 13 -205 -49q-32 -28 -32 -74q0 -68 72 -121.5t177 -62.5q157 -17 263 -107.5t106 -208.5zM193 754q0 -66 72 -120.5t177 -64.5q135 -13 203 49q35 30 35 74q0 67 -72.5 120.5t-177.5 64.5q-14 2 -41 2q-106 0 -164 -52q-32 -28 -32 -73z" />
    <glyph glyph-name="dieresis" unicode="&#xa8;" horiz-adv-x="712" 
d="M168 1407q-45 0 -76 -28t-31 -72t31 -72.5t76 -28.5q44 0 75 29t31 72t-31 71.5t-75 28.5zM547 1407q-45 0 -76 -28t-31 -72t31 -72.5t76 -28.5q43 0 73.5 28.5t30.5 72.5t-30 72t-74 28z" />
    <glyph glyph-name="copyright" unicode="&#xa9;" horiz-adv-x="1409" 
d="M705 0q129 0 246 48.5t208 139.5t140 208.5t49 246.5q0 128 -49 245t-140 210q-91 91 -208 139.5t-246 48.5t-246.5 -48.5t-208.5 -139.5q-91 -93 -140 -210t-49 -245q0 -129 49 -246.5t140 -208.5t208.5 -139.5t246.5 -48.5zM705 1243q120 0 229 -45.5t194 -130.5
q85 -87 131 -196t46 -228q0 -120 -46 -229.5t-131 -194.5q-84 -86 -193 -131t-230 -45t-230.5 45t-193.5 131q-85 85 -131 194.5t-46 229.5q0 119 46 228t131 196q85 85 194.5 130.5t229.5 45.5zM700 330q88 0 162.5 45t114.5 121q10 17 -8 28q-7 5 -16.5 2t-12.5 -10
q-35 -66 -100 -104.5t-140 -38.5q-111 0 -189.5 79t-78.5 191q0 110 79 190t189 80q75 0 140 -38.5t100 -104.5q3 -7 12.5 -10t16.5 2q7 3 10 12.5t-2 16.5q-40 76 -114.5 120.5t-162.5 44.5q-129 0 -220 -92t-91 -221q0 -130 91 -221.5t220 -91.5z" />
    <glyph glyph-name="guillemotleft" unicode="&#xab;" horiz-adv-x="714" 
d="M305 414q30 0 47 20q19 19 19 45.5t-19 46.5l-135 133l135 136q19 19 19 45.5t-19 46.5q-19 19 -46 19t-46 -19l-180 -180q-19 -19 -19 -48q0 -26 19 -45l180 -180q17 -20 45 -20zM588 414q30 0 47 20q19 19 19 45.5t-19 46.5l-135 133l135 136q19 19 19 45.5t-19 46.5
q-20 19 -46.5 19t-45.5 -19l-181 -180q-20 -20 -20 -48q0 -25 20 -45l181 -180q17 -20 45 -20z" />
    <glyph glyph-name="logicalnot" unicode="&#xac;" horiz-adv-x="860" 
d="M778 434q8 0 14.5 6t6.5 15v323q0 9 -6.5 16t-14.5 7h-694q-9 0 -16 -7t-7 -16t7 -14.5t16 -5.5h674v-303q0 -21 20 -21z" />
    <glyph glyph-name="uni00AD" unicode="&#xad;" 
 />
    <glyph glyph-name="registered" unicode="&#xae;" horiz-adv-x="1406" 
d="M1157 1098q189 -189 189 -455q0 -130 -48.5 -247.5t-140.5 -207.5q-91 -91 -208 -139.5t-244 -48.5q-129 0 -246.5 48.5t-208.5 139.5t-140 208.5t-49 246.5q0 128 49 245t140 210q90 90 207.5 138t247.5 48q128 0 245 -48t207 -138zM1128 219q85 85 130 194.5t45 229.5
q0 246 -175 424q-177 174 -423 174q-250 0 -424 -174q-177 -177 -177 -424q0 -120 45.5 -230t131.5 -194q173 -176 424 -176q247 0 423 176zM922 780q0 -62 -44 -107t-106 -48l146 -244q5 -7 2.5 -17t-9.5 -14q-4 -2 -12 -2q-11 0 -18 10l-160 267h-193v-256
q0 -8 -5.5 -14.5t-14.5 -6.5t-16 6.5t-7 14.5v546q0 9 7 16t16 7h256q64 0 111 -47t47 -111zM764 668q47 0 81 33t34 79q0 47 -34 81t-81 34h-236v-227h199q6 3 12 0h25z" />
    <glyph glyph-name="macron" unicode="&#xaf;" horiz-adv-x="600" 
d="M475 1243q26 0 45 19t19 47q0 27 -18.5 46t-45.5 19h-348q-28 0 -47 -18.5t-19 -46.5t19 -47t47 -19h348z" />
    <glyph glyph-name="degree" unicode="&#xb0;" horiz-adv-x="385" 
d="M193 1133q56 0 93.5 36.5t37.5 90.5q0 55 -37.5 90.5t-93.5 35.5q-57 0 -94.5 -35.5t-37.5 -90.5q0 -54 37.5 -90.5t94.5 -36.5zM193 1343q38 0 63 -23t25 -60q0 -36 -25 -60t-63 -24t-64.5 24.5t-26.5 59.5q0 36 26 59.5t65 23.5z" />
    <glyph glyph-name="plusminus" unicode="&#xb1;" horiz-adv-x="712" 
d="M127 616q-27 0 -46.5 19.5t-19.5 46.5q0 26 20 46t46 20h164v163q0 26 19.5 46t45.5 20q27 0 46.5 -19.5t19.5 -46.5v-163h164q27 0 46 -19.5t19 -46.5q0 -28 -18.5 -47t-46.5 -19h-164v-163q0 -28 -19 -47t-47 -19q-26 0 -45.5 19.5t-19.5 46.5v163h-164zM586 315
q27 0 46 -19t19 -46q0 -28 -18.5 -47t-46.5 -19h-459q-27 0 -46.5 19.5t-19.5 46.5q0 26 20 45.5t46 19.5h459z" />
    <glyph glyph-name="acute" unicode="&#xb4;" 
d="M397 1212h13l276 62q27 6 41.5 28.5t9.5 49.5q-6 27 -28.5 41.5t-49.5 9.5l-276 -62q-27 -6 -41.5 -28t-9.5 -49q6 -23 24 -37.5t41 -14.5z" />
    <glyph glyph-name="uni00B5" unicode="&#xb5;" horiz-adv-x="1015" 
d="M891 1106q26 0 44.5 -19t18.5 -45v-976q0 -28 -18.5 -47t-44.5 -19q-28 0 -47 19t-19 47v73q-136 -139 -327 -139q-184 0 -308 127v-489q0 -27 -19 -46.5t-46 -19.5q-26 0 -45 20t-19 46v1404q0 26 19 45t45 19q27 0 46 -19t19 -45v-569q0 -149 87 -245.5t221 -96.5
q138 0 232.5 98.5t94.5 243.5v8v6v555q0 26 19 45t47 19z" />
    <glyph glyph-name="paragraph" unicode="&#xb6;" horiz-adv-x="1077" 
d="M993 1251q9 0 16 -6t7 -14v-1401q0 -8 -7 -14t-16 -6q-7 0 -13.5 6t-6.5 14v1378h-191v-1378q0 -8 -6 -14t-14 -6q-9 0 -15 6t-6 14v678h-319q-149 0 -255 109.5t-106 263.5t106 262t255 108h571zM422 551h319v657h-319q-132 0 -226 -96t-94 -231q0 -136 94 -233t226 -97
z" />
    <glyph glyph-name="periodcentered" unicode="&#xb7;" horiz-adv-x="374" 
d="M188 629q-54 0 -90.5 -33.5t-36.5 -85.5t36.5 -85.5t90.5 -33.5q53 0 89 33.5t36 85.5t-36 85.5t-89 33.5z" />
    <glyph glyph-name="cedilla" unicode="&#xb8;" horiz-adv-x="471" 
d="M221 -430q78 0 133.5 56t55.5 134q0 61 -34 109.5t-89 69.5v71q0 27 -19.5 46.5t-46.5 19.5q-28 0 -46.5 -19t-18.5 -47v-125q0 -28 18.5 -46.5t46.5 -18.5q25 0 42.5 -17.5t17.5 -42.5t-17.5 -42t-42.5 -17q-28 0 -45 20q-19 21 -45 23t-47 -16q-21 -19 -22.5 -46
t16.5 -47q59 -65 143 -65z" />
    <glyph glyph-name="guillemotright" unicode="&#xbb;" horiz-adv-x="714" 
d="M127 414q28 0 45 20l180 180q21 21 21 45q0 27 -21 48l-180 180q-19 19 -45.5 19t-46.5 -19q-19 -20 -19 -46.5t19 -45.5l135 -136l-135 -133q-19 -20 -19 -46.5t19 -45.5q17 -20 47 -20zM410 414q28 0 45 20l180 180q18 18 18 45q0 30 -18 48l-180 180q-19 19 -46.5 19
t-46.5 -19q-19 -20 -19 -46.5t19 -45.5l136 -136l-136 -133q-19 -20 -19 -46.5t19 -45.5q17 -20 48 -20z" />
    <glyph glyph-name="questiondown" unicode="&#xbf;" horiz-adv-x="958" 
d="M510 1298q37 0 62.5 23.5t25.5 58.5q0 36 -25.5 60t-62.5 24t-62.5 -24t-25.5 -60q0 -35 25.5 -58.5t62.5 -23.5zM510 1171q-27 0 -46.5 -19t-19.5 -46q0 -59 -9.5 -105t-21.5 -75.5t-38.5 -59t-45 -44.5t-55.5 -42q-34 -25 -51.5 -39t-47.5 -42.5t-46 -56t-34 -66
t-26 -87.5t-8 -108q0 -72 27.5 -139.5t78.5 -122t132 -87t180 -32.5q201 0 316 137q49 55 75.5 125.5t26.5 143.5q0 26 -19.5 45.5t-46.5 19.5t-46 -19t-19 -46q0 -43 -16 -88.5t-48.5 -88.5t-90.5 -70.5t-132 -27.5q-71 0 -127.5 22t-90 58t-51 79.5t-17.5 90.5q0 51 9 92
t20 67.5t36 53.5t42 40.5t52 39.5q30 22 44 33.5t42.5 37.5t43.5 46.5t35.5 55.5t31 70.5t18.5 84.5t8 104q0 28 -18.5 46.5t-46.5 18.5z" />
    <glyph glyph-name="Agrave" unicode="&#xc0;" horiz-adv-x="1406" 
d="M858 1495q23 0 41.5 14t24.5 37q5 27 -10 49.5t-42 28.5l-276 62q-27 5 -49.5 -10t-28.5 -42q-5 -27 9.5 -49.5t41.5 -28.5l277 -61h12zM1339 92q11 -25 1.5 -50.5t-33.5 -35.5q-15 -6 -27 -6q-43 0 -59 39l-154 348h-727l-152 -348q-10 -25 -35.5 -34.5t-50.5 1.5
q-25 10 -35 35.5t1 50.5l575 1315q19 39 62 39t59 -39zM397 518h613l-305 701z" />
    <glyph glyph-name="Aacute" unicode="&#xc1;" horiz-adv-x="1406" 
d="M557 1536h12l277 61q27 6 41.5 28.5t9.5 49.5q-6 27 -28.5 41.5t-49.5 9.5l-276 -61q-27 -6 -41.5 -28.5t-9.5 -49.5q6 -23 24 -37t41 -14zM1339 92q11 -25 1.5 -50.5t-33.5 -35.5q-15 -6 -27 -6q-43 0 -59 39l-154 348h-727l-152 -348q-10 -25 -35.5 -34.5t-50.5 1.5
q-25 10 -35 35.5t1 50.5l575 1315q19 39 62 39t59 -39zM397 518h613l-305 701z" />
    <glyph glyph-name="Acircumflex" unicode="&#xc2;" horiz-adv-x="1406" 
d="M471 1518q3 0 8.5 1t7.5 1l222 57l219 -57q26 -6 49.5 7.5t30.5 39.5q6 27 -7.5 50.5t-39.5 29.5l-236 61q-18 3 -33 0l-237 -61q-26 -6 -39.5 -30t-5.5 -50q4 -22 21.5 -35.5t39.5 -13.5zM1339 92q11 -25 1.5 -50.5t-33.5 -35.5q-15 -6 -27 -6q-43 0 -59 39l-154 348
h-727l-152 -348q-10 -25 -35.5 -34.5t-50.5 1.5q-25 10 -35 35.5t1 50.5l575 1315q19 39 62 39t59 -39zM397 518h613l-305 701z" />
    <glyph glyph-name="Atilde" unicode="&#xc3;" horiz-adv-x="1406" 
d="M850 1485q57 0 111 43q19 14 30 14q28 0 47 19t19 47q0 26 -19.5 45.5t-46.5 19.5q-14 0 -27.5 -2.5t-22 -4.5t-20.5 -8.5t-15.5 -8.5t-15.5 -11l-11 -8q-16 -14 -29 -14t-29 14l-11 8q-12 9 -15.5 11t-15.5 8.5t-20.5 8.5t-22 4.5t-27.5 2.5q-57 0 -111 -43
q-19 -14 -31 -14t-28 14q-1 1 -10 7.5t-12.5 8.5t-12.5 7.5t-16 8t-17.5 5.5t-21.5 4.5t-23 1.5q-26 0 -46 -19.5t-20 -45.5q0 -27 19.5 -46.5t46.5 -19.5q12 0 31 -14q54 -43 110 -43q12 0 23 1.5t21.5 4.5t17.5 5.5t16 8t12.5 7.5t12.5 8.5t10 7.5q16 14 29 14
q11 0 30 -14q54 -43 111 -43zM1339 92q11 -25 1.5 -50.5t-33.5 -35.5q-15 -6 -27 -6q-43 0 -59 39l-154 348h-727l-152 -348q-10 -25 -35.5 -34.5t-50.5 1.5q-25 10 -35 35.5t1 50.5l575 1315q19 39 62 39t59 -39zM397 518h613l-305 701z" />
    <glyph glyph-name="Adieresis" unicode="&#xc4;" horiz-adv-x="1406" 
d="M518 1729q-45 0 -75.5 -28.5t-30.5 -72.5t30.5 -72t75.5 -28q44 0 75.5 28.5t31.5 71.5t-31.5 72t-75.5 29zM897 1729q-45 0 -75.5 -28.5t-30.5 -72.5t30.5 -72t75.5 -28q44 0 74 28t30 72t-30.5 72.5t-73.5 28.5zM1339 92q11 -25 1.5 -50.5t-33.5 -35.5q-15 -6 -27 -6
q-43 0 -59 39l-154 348h-727l-152 -348q-10 -25 -35.5 -34.5t-50.5 1.5q-25 10 -35 35.5t1 50.5l575 1315q19 39 62 39t59 -39zM397 518h613l-305 701z" />
    <glyph glyph-name="Aring" unicode="&#xc5;" horiz-adv-x="1406" 
d="M709 1524q72 0 122 47.5t50 116.5t-50 117t-122 48q-71 0 -120.5 -48t-49.5 -117t49.5 -116.5t120.5 -47.5zM709 1722q41 0 41 -34q0 -16 -12 -24.5t-29 -8.5q-15 0 -27 8.5t-12 24.5q0 17 11.5 25.5t27.5 8.5zM1339 92q11 -25 1.5 -50.5t-33.5 -35.5q-15 -6 -27 -6
q-43 0 -59 39l-154 348h-727l-152 -348q-10 -25 -35.5 -34.5t-50.5 1.5q-25 10 -35 35.5t1 50.5l575 1315q19 39 62 39t59 -39zM397 518h613l-305 701z" />
    <glyph glyph-name="AE" unicode="&#xc6;" horiz-adv-x="1787" 
d="M1661 131q27 0 46 -19t19 -46q0 -28 -18.5 -47t-46.5 -19h-797q-28 0 -46.5 19t-18.5 47v321h-416l-199 -354q-20 -33 -57 -33q-20 0 -33 8q-23 13 -29.5 39t5.5 49l737 1317q20 33 57 33h797q28 0 46.5 -19t18.5 -47q0 -26 -18.5 -44.5t-46.5 -18.5h-733v-799h573
q27 0 46.5 -19t19.5 -46q0 -26 -20 -46t-46 -20h-573v-256h733zM799 1130l-344 -612h344v612z" />
    <glyph glyph-name="Ccedilla" unicode="&#xc7;" horiz-adv-x="1406" 
d="M1323 340q21 -19 22.5 -45.5t-16.5 -46.5q-92 -106 -215.5 -169t-261.5 -75v-45q55 -21 89 -69t34 -109q0 -78 -55.5 -134.5t-133.5 -56.5q-83 0 -143 66q-18 20 -16.5 46.5t22.5 45.5q20 18 46.5 16.5t45.5 -22.5q17 -21 45 -21q25 0 42.5 17.5t17.5 42.5t-17.5 42
t-42.5 17q-28 0 -46.5 19t-18.5 47v96q-182 16 -333.5 115.5t-239 259.5t-87.5 346q0 196 97.5 362.5t264 263.5t361.5 97q157 0 299.5 -64.5t245.5 -181.5q18 -22 16.5 -48.5t-22.5 -43.5q-20 -19 -46.5 -17.5t-45.5 23.5q-85 97 -201.5 150t-245.5 53q-120 0 -229.5 -47
t-188.5 -126.5t-126 -189.5t-47 -231q0 -160 79 -296.5t215.5 -216t296.5 -79.5q129 0 245.5 53t201.5 150q19 20 45.5 21.5t46.5 -15.5z" />
    <glyph glyph-name="Egrave" unicode="&#xc8;" horiz-adv-x="1112" 
d="M707 1544q23 0 41 14t24 37q5 27 -9.5 49.5t-41.5 28.5l-277 62q-27 5 -49 -10t-28 -42q-5 -27 9.5 -49t41.5 -28l276 -62h13zM985 131q26 0 46 -19.5t20 -45.5q0 -27 -19.5 -46.5t-46.5 -19.5h-858q-28 0 -47 19t-19 47v1314q0 28 19 47t47 19h858q27 0 46.5 -19.5
t19.5 -46.5q0 -26 -19.5 -44.5t-46.5 -18.5h-792v-498h571q26 0 45.5 -18.5t19.5 -44.5q0 -28 -19.5 -47t-45.5 -19h-571v-559h792z" />
    <glyph glyph-name="Eacute" unicode="&#xc9;" horiz-adv-x="1112" 
d="M406 1585h12l276 62q27 6 41.5 28t9.5 49q-6 27 -28 42t-49 10l-277 -62q-27 -6 -41.5 -28.5t-9.5 -49.5q6 -23 24.5 -37t41.5 -14zM985 131q26 0 46 -19.5t20 -45.5q0 -27 -19.5 -46.5t-46.5 -19.5h-858q-28 0 -47 19t-19 47v1314q0 28 19 47t47 19h858q27 0 46.5 -19.5
t19.5 -46.5q0 -26 -19.5 -44.5t-46.5 -18.5h-792v-498h571q26 0 45.5 -18.5t19.5 -44.5q0 -28 -19.5 -47t-45.5 -19h-571v-559h792z" />
    <glyph glyph-name="Ecircumflex" unicode="&#xca;" horiz-adv-x="1112" 
d="M319 1567q3 0 9 1t8 1l221 57l219 -57q26 -6 49.5 7.5t30.5 39.5q6 27 -7.5 50.5t-39.5 29.5l-236 61q-17 3 -32 0l-238 -61q-26 -6 -39.5 -30t-5.5 -50q4 -22 21.5 -35.5t39.5 -13.5zM985 131q26 0 46 -19.5t20 -45.5q0 -27 -19.5 -46.5t-46.5 -19.5h-858q-28 0 -47 19
t-19 47v1314q0 28 19 47t47 19h858q27 0 46.5 -19.5t19.5 -46.5q0 -26 -19.5 -44.5t-46.5 -18.5h-792v-498h571q26 0 45.5 -18.5t19.5 -44.5q0 -28 -19.5 -47t-45.5 -19h-571v-559h792z" />
    <glyph glyph-name="Igrave" unicode="&#xcc;" horiz-adv-x="274" 
d="M287 1544q23 0 41 14t24 37q5 27 -9.5 49.5t-41.5 28.5l-276 62q-27 5 -49.5 -10t-28.5 -42q-5 -27 9.5 -49t41.5 -28l276 -62h13zM137 0q28 0 47 19t19 47v1314q0 28 -19 47t-47 19t-46.5 -19t-18.5 -47v-1314q0 -28 18.5 -47t46.5 -19z" />
    <glyph glyph-name="Iacute" unicode="&#xcd;" horiz-adv-x="274" 
d="M-14 1585h12l276 62q27 6 42 28t10 49q-6 27 -28.5 42t-49.5 10l-277 -62q-27 -6 -41.5 -28.5t-9.5 -49.5q6 -23 24.5 -37t41.5 -14zM137 0q28 0 47 19t19 47v1314q0 28 -19 47t-47 19t-46.5 -19t-18.5 -47v-1314q0 -28 18.5 -47t46.5 -19z" />
    <glyph glyph-name="Icircumflex" unicode="&#xce;" horiz-adv-x="274" 
d="M-100 1567q3 0 8.5 1t7.5 1l221 57l219 -57q26 -6 49.5 7.5t30.5 39.5q6 27 -7.5 50.5t-39.5 29.5l-235 61q-18 3 -33 0l-238 -61q-26 -6 -39.5 -30t-5.5 -50q4 -21 22 -35t40 -14zM137 0q28 0 47 19t19 47v1314q0 28 -19 47t-47 19t-46.5 -19t-18.5 -47v-1314
q0 -28 18.5 -47t46.5 -19z" />
    <glyph glyph-name="Idieresis" unicode="&#xcf;" horiz-adv-x="274" 
d="M-53 1778q-45 0 -76 -28.5t-31 -72.5t31 -72t76 -28q44 0 75 28.5t31 71.5t-31 72t-75 29zM326 1778q-45 0 -76 -28.5t-31 -72.5t31 -72t76 -28q44 0 74 28t30 72t-30.5 72.5t-73.5 28.5zM137 0q28 0 47 19t19 47v1314q0 28 -19 47t-47 19t-46.5 -19t-18.5 -47v-1314
q0 -28 18.5 -47t46.5 -19z" />
    <glyph glyph-name="Eth" unicode="&#xd0;" horiz-adv-x="1349" 
d="M565 1446q196 0 362.5 -97t263.5 -263.5t97 -362.5t-97 -362.5t-263.5 -263.5t-362.5 -97h-332q-28 0 -46.5 19t-18.5 47v788h-96q-28 0 -47 19t-19 47t19 46.5t47 18.5h96v395q0 28 18.5 47t46.5 19h332zM565 131q161 0 298 79.5t216.5 216t79.5 296.5q0 161 -79.5 298
t-216.5 216.5t-298 79.5h-266v-332h121q26 0 44.5 -18.5t18.5 -46.5t-18.5 -47t-44.5 -19h-121v-723h266z" />
    <glyph glyph-name="Ntilde" unicode="&#xd1;" horiz-adv-x="1290" 
d="M780 1477q57 0 111 43q19 14 31 14q28 0 46.5 18.5t18.5 46.5q0 27 -19 46.5t-46 19.5q-12 0 -23 -1.5t-21.5 -4.5t-17.5 -5.5t-16 -8t-12.5 -7.5t-12.5 -8.5t-10 -7.5q-16 -14 -29 -14q-12 0 -28 14q-1 1 -10 7.5t-12.5 8.5t-12.5 7.5t-16 8t-17.5 5.5t-21.5 4.5
t-23 1.5q-57 0 -111 -43q-19 -14 -30 -14q-13 0 -29 14q-1 1 -10 7.5t-12.5 8.5t-12.5 7.5t-16 8t-17.5 5.5t-21.5 4.5t-23 1.5q-26 0 -45.5 -20t-19.5 -46q0 -27 19 -46t46 -19q12 0 31 -14q54 -43 111 -43q14 0 27.5 2.5t22 4.5t20.5 8.5t15.5 8.5t14.5 11l12 8
q16 14 29 14q12 0 31 -14q54 -43 110 -43zM1163 0q7 0 23 4q43 13 43 62v1314q0 28 -19 47t-47 19q-27 0 -46 -19t-19 -47v-1126l-920 1167q-12 17 -33 23t-39 0q-45 -17 -45 -64v-1314q0 -28 19 -47t47 -19t47 19t19 47v1126l919 -1167q19 -25 51 -25z" />
    <glyph glyph-name="Ograve" unicode="&#xd2;" horiz-adv-x="1568" 
d="M934 1497q23 0 41 14t24 37q5 27 -9.5 49.5t-41.5 28.5l-276 62q-27 5 -49.5 -10t-28.5 -42q-5 -27 9.5 -49t41.5 -28l277 -62h12zM784 0q196 0 362.5 97t263.5 263.5t97 362.5t-97 362.5t-263.5 263.5t-362.5 97t-362.5 -97t-263.5 -263.5t-97 -362.5t97 -362.5
t263.5 -263.5t362.5 -97zM784 1317q161 0 297.5 -79.5t215.5 -216.5t79 -298q0 -160 -79 -296.5t-215.5 -216t-297.5 -79.5q-121 0 -230.5 47t-188.5 126.5t-125.5 189t-46.5 229.5q0 121 46.5 231t125.5 189.5t188.5 126.5t230.5 47z" />
    <glyph glyph-name="Oacute" unicode="&#xd3;" horiz-adv-x="1568" 
d="M633 1538h12l277 61q27 6 41.5 28.5t9.5 49.5q-6 27 -28.5 42t-49.5 10l-277 -62q-27 -6 -41.5 -28.5t-9.5 -49.5q6 -23 24.5 -37t41.5 -14zM784 0q196 0 362.5 97t263.5 263.5t97 362.5t-97 362.5t-263.5 263.5t-362.5 97t-362.5 -97t-263.5 -263.5t-97 -362.5
t97 -362.5t263.5 -263.5t362.5 -97zM784 1317q161 0 297.5 -79.5t215.5 -216.5t79 -298q0 -160 -79 -296.5t-215.5 -216t-297.5 -79.5q-121 0 -230.5 47t-188.5 126.5t-125.5 189t-46.5 229.5q0 121 46.5 231t125.5 189.5t188.5 126.5t230.5 47z" />
    <glyph glyph-name="Ocircumflex" unicode="&#xd4;" horiz-adv-x="1568" 
d="M547 1520q3 0 8.5 1t7.5 1l221 57l220 -57q26 -6 49 7.5t30 39.5q6 27 -7.5 50.5t-39.5 29.5l-235 61q-18 3 -33 0l-238 -61q-26 -6 -39.5 -30t-5.5 -50q4 -21 22 -35t40 -14zM784 0q196 0 362.5 97t263.5 263.5t97 362.5t-97 362.5t-263.5 263.5t-362.5 97t-362.5 -97
t-263.5 -263.5t-97 -362.5t97 -362.5t263.5 -263.5t362.5 -97zM784 1317q161 0 297.5 -79.5t215.5 -216.5t79 -298q0 -160 -79 -296.5t-215.5 -216t-297.5 -79.5q-121 0 -230.5 47t-188.5 126.5t-125.5 189t-46.5 229.5q0 121 46.5 231t125.5 189.5t188.5 126.5t230.5 47z
" />
    <glyph glyph-name="Otilde" unicode="&#xd5;" horiz-adv-x="1568" 
d="M926 1487q56 0 110 43q19 14 31 14q28 0 47 19t19 47q0 26 -19.5 45.5t-46.5 19.5q-12 0 -23 -1.5t-21.5 -4.5t-17.5 -5.5t-16 -8t-12.5 -7.5t-12.5 -8.5t-10 -7.5q-16 -14 -28 -14q-13 0 -29 14q-1 1 -10 7.5t-12.5 8.5t-12.5 7.5t-16 8t-17.5 5.5t-21.5 4.5t-23 1.5
q-56 0 -110 -43q-19 -14 -31 -14q-13 0 -29 14l-12 8q-11 9 -14.5 11t-15.5 8.5t-20.5 8.5t-22 4.5t-27.5 2.5q-26 0 -46 -19.5t-20 -45.5q0 -27 19.5 -46.5t46.5 -19.5q11 0 30 -14q54 -43 111 -43q12 0 23 1.5t21.5 4.5t17.5 5.5t16 8t12.5 7.5t12.5 8.5t10 7.5
q16 14 28 14t31 -14q54 -43 111 -43zM784 0q196 0 362.5 97t263.5 263.5t97 362.5t-97 362.5t-263.5 263.5t-362.5 97t-362.5 -97t-263.5 -263.5t-97 -362.5t97 -362.5t263.5 -263.5t362.5 -97zM784 1317q161 0 297.5 -79.5t215.5 -216.5t79 -298q0 -160 -79 -296.5
t-215.5 -216t-297.5 -79.5q-121 0 -230.5 47t-188.5 126.5t-125.5 189t-46.5 229.5q0 121 46.5 231t125.5 189.5t188.5 126.5t230.5 47z" />
    <glyph glyph-name="Odieresis" unicode="&#xd6;" horiz-adv-x="1568" 
d="M594 1731q-45 0 -76 -28.5t-31 -72.5t31 -72t76 -28q44 0 75 28.5t31 71.5t-31 72t-75 29zM973 1731q-45 0 -76 -28.5t-31 -72.5t31 -72t76 -28q44 0 74 28t30 72t-30.5 72.5t-73.5 28.5zM784 0q196 0 362.5 97t263.5 263.5t97 362.5t-97 362.5t-263.5 263.5t-362.5 97
t-362.5 -97t-263.5 -263.5t-97 -362.5t97 -362.5t263.5 -263.5t362.5 -97zM784 1317q161 0 297.5 -79.5t215.5 -216.5t79 -298q0 -160 -79 -296.5t-215.5 -216t-297.5 -79.5q-121 0 -230.5 47t-188.5 126.5t-125.5 189t-46.5 229.5q0 121 46.5 231t125.5 189.5t188.5 126.5
t230.5 47z" />
    <glyph glyph-name="multiply" unicode="&#xd7;" horiz-adv-x="577" 
d="M498 504q20 -19 19.5 -46t-19.5 -46q-20 -20 -46.5 -20t-45.5 20l-117 116l-117 -116q-19 -20 -45.5 -20t-46.5 20q-19 19 -19.5 46t19.5 46l117 117l-117 116q-19 19 -19.5 45t19.5 47q19 19 46 19t46 -19l117 -116l117 116q19 19 46 19t46 -19q20 -21 19.5 -47
t-19.5 -45l-117 -116z" />
    <glyph glyph-name="Oslash" unicode="&#xd8;" horiz-adv-x="1568" 
d="M1300 1229q97 -99 152 -230t55 -276q0 -196 -97 -362.5t-263.5 -263.5t-362.5 -97q-145 0 -275.5 55t-229.5 152q-4 4 -7 4l-4 6q-98 100 -152.5 230.5t-54.5 275.5q0 196 97 362.5t263.5 263.5t362.5 97q145 0 275.5 -54.5t230.5 -152.5l6 -4q0 -2 4 -6zM784 1317
q-161 0 -298 -79.5t-216.5 -216.5t-79.5 -298q0 -207 132 -371l833 834q-163 131 -371 131zM784 131q160 0 296.5 79.5t216 216t79.5 296.5q0 207 -129 371l-833 -834q164 -129 370 -129z" />
    <glyph glyph-name="Ugrave" unicode="&#xd9;" horiz-adv-x="1284" 
d="M791 1526q23 0 41 14t24 37q5 27 -9.5 49.5t-41.5 28.5l-277 61q-27 5 -49 -9.5t-28 -41.5q-5 -27 9.5 -49.5t41.5 -28.5l276 -61h13zM641 0q158 0 292 78t212 212t78 292v798q0 28 -19 47t-47 19t-46.5 -19t-18.5 -47v-798q0 -188 -132 -319.5t-319 -131.5
q-186 0 -318.5 132t-132.5 319v798q0 28 -18.5 47t-46.5 19q-26 0 -45 -19t-19 -47v-798q0 -119 46 -226.5t124 -185.5t185 -124t225 -46z" />
    <glyph glyph-name="Uacute" unicode="&#xda;" horiz-adv-x="1284" 
d="M489 1567h13l276 61q27 6 41.5 28.5t9.5 49.5q-6 27 -28 41.5t-49 9.5l-277 -61q-27 -6 -41.5 -28.5t-9.5 -49.5q6 -23 24 -37t41 -14zM641 0q158 0 292 78t212 212t78 292v798q0 28 -19 47t-47 19t-46.5 -19t-18.5 -47v-798q0 -188 -132 -319.5t-319 -131.5
q-186 0 -318.5 132t-132.5 319v798q0 28 -18.5 47t-46.5 19q-26 0 -45 -19t-19 -47v-798q0 -119 46 -226.5t124 -185.5t185 -124t225 -46z" />
    <glyph glyph-name="Ucircumflex" unicode="&#xdb;" horiz-adv-x="1284" 
d="M403 1548q3 0 9 1t8 1l221 58l219 -58q26 -6 49.5 7.5t30.5 39.5q6 27 -7.5 50.5t-39.5 29.5l-236 62q-17 3 -32 0l-238 -62q-26 -6 -39.5 -30t-5.5 -50q4 -22 21.5 -35.5t39.5 -13.5zM641 0q158 0 292 78t212 212t78 292v798q0 28 -19 47t-47 19t-46.5 -19t-18.5 -47
v-798q0 -188 -132 -319.5t-319 -131.5q-186 0 -318.5 132t-132.5 319v798q0 28 -18.5 47t-46.5 19q-26 0 -45 -19t-19 -47v-798q0 -119 46 -226.5t124 -185.5t185 -124t225 -46z" />
    <glyph glyph-name="Udieresis" unicode="&#xdc;" horiz-adv-x="1284" 
d="M451 1759q-45 0 -76 -28t-31 -72t31 -72t76 -28q44 0 75 28.5t31 71.5t-31 71.5t-75 28.5zM829 1759q-45 0 -75.5 -28t-30.5 -72t30.5 -72t75.5 -28q44 0 74.5 28.5t30.5 71.5t-30.5 71.5t-74.5 28.5zM641 0q158 0 292 78t212 212t78 292v798q0 28 -19 47t-47 19
t-46.5 -19t-18.5 -47v-798q0 -188 -132 -319.5t-319 -131.5q-186 0 -318.5 132t-132.5 319v798q0 28 -18.5 47t-46.5 19q-26 0 -45 -19t-19 -47v-798q0 -119 46 -226.5t124 -185.5t185 -124t225 -46z" />
    <glyph glyph-name="Yacute" unicode="&#xdd;" horiz-adv-x="1157" 
d="M426 1511h12l277 62q27 6 41.5 28.5t9.5 49.5q-6 27 -28.5 41.5t-49.5 9.5l-276 -62q-27 -6 -42 -28t-10 -49q6 -23 24.5 -37.5t41.5 -14.5zM1065 1436q23 -15 28 -42.5t-10 -50.5l-440 -641v-636q0 -28 -18.5 -47t-46.5 -19q-27 0 -46.5 19.5t-19.5 46.5v636l-438 641
q-15 23 -10.5 50.5t26.5 42.5q23 15 50 9.5t42 -28.5l396 -577l397 577q15 23 41.5 28.5t48.5 -9.5z" />
    <glyph glyph-name="Thorn" unicode="&#xde;" horiz-adv-x="1130" 
d="M565 1262q137 0 253 -67.5t183.5 -184t67.5 -254.5q0 -209 -147.5 -356.5t-356.5 -147.5h-372v-186q0 -28 -19 -47t-47 -19t-47 19t-19 47v1382q0 28 19 46.5t47 18.5t47 -18.5t19 -46.5v-186h372zM565 381q154 0 264.5 110.5t110.5 264.5q0 155 -110.5 266t-264.5 111
h-372v-752h372z" />
    <glyph glyph-name="germandbls" unicode="&#xdf;" horiz-adv-x="1054" 
d="M633 0q162 0 266 100q94 94 94 219q0 38 -7.5 72t-18.5 59.5t-31.5 48.5t-37 39t-46.5 31.5t-48 24t-52.5 19.5t-50.5 15t-50 13q-130 32 -177.5 63.5t-47.5 102.5q0 44 12 73t43.5 49t67.5 32t102 28q34 8 53 12.5t52.5 15.5t53.5 22t45 29.5t39 39.5t24 51t10 66
q0 114 -93 184t-245 70q-246 0 -381 -150q-148 -165 -148 -498v-735q0 -26 19 -45.5t45 -19.5q27 0 46 19t19 46v735q0 96 13.5 174t35.5 131t55 92.5t66.5 62t76 36t77.5 17.5t76 4q90 0 151 -33q56 -32 56 -90q0 -43 -35 -64t-139 -45q-34 -7 -52.5 -12t-53.5 -15
t-56 -21.5t-50.5 -28.5t-47 -38.5t-35 -49.5t-25.5 -64.5t-8 -79.5q0 -44 12 -81t27.5 -63t46 -49t53 -36t62.5 -27.5t60.5 -20l61.5 -16.5q139 -35 191.5 -72.5t52.5 -122.5q0 -75 -61.5 -131.5t-167.5 -56.5q-83 0 -137.5 33t-75.5 80q-10 24 -35.5 33.5t-50.5 -1.5
q-25 -12 -34.5 -37.5t1.5 -50.5q40 -88 129 -138t203 -50z" />
    <glyph glyph-name="agrave" unicode="&#xe0;" horiz-adv-x="1169" 
d="M733 1221q23 0 41.5 14t24.5 37q5 27 -9.5 49.5t-41.5 28.5l-277 61q-27 5 -49.5 -9.5t-28.5 -41.5q-5 -27 9.5 -49.5t41.5 -28.5l277 -61h12zM1042 1106q28 0 47 -19t19 -45v-976q0 -28 -19 -47t-47 -19t-46.5 19t-18.5 47v114q-71 -86 -172.5 -133t-220.5 -47
q-146 0 -266 72t-188.5 199t-68.5 282t68.5 282t188.5 199t266 72q118 0 219.5 -47t173.5 -131v114q0 26 18.5 45t46.5 19zM584 131q168 0 280.5 121t112.5 301q0 182 -112 303t-281 121q-167 0 -279 -121.5t-112 -302.5q0 -180 112 -301t279 -121z" />
    <glyph glyph-name="aacute" unicode="&#xe1;" horiz-adv-x="1169" 
d="M432 1237h12l277 61q27 6 41.5 28.5t9.5 49.5q-6 27 -28.5 41.5t-49.5 9.5l-276 -61q-27 -6 -41.5 -28.5t-9.5 -49.5q6 -23 24 -37t41 -14zM1042 1106q28 0 47 -19t19 -45v-976q0 -28 -19 -47t-47 -19t-46.5 19t-18.5 47v114q-71 -86 -172.5 -133t-220.5 -47
q-146 0 -266 72t-188.5 199t-68.5 282t68.5 282t188.5 199t266 72q118 0 219.5 -47t173.5 -131v114q0 26 18.5 45t46.5 19zM584 131q168 0 280.5 121t112.5 301q0 182 -112 303t-281 121q-167 0 -279 -121.5t-112 -302.5q0 -180 112 -301t279 -121z" />
    <glyph glyph-name="acircumflex" unicode="&#xe2;" horiz-adv-x="1169" 
d="M346 1231q3 0 8.5 1t7.5 1l222 57l219 -57q26 -6 49.5 7.5t30.5 39.5q6 27 -7.5 50.5t-39.5 29.5l-236 61q-18 3 -33 0l-237 -61q-26 -6 -39.5 -30t-5.5 -50q4 -22 21.5 -35.5t39.5 -13.5zM1042 1106q28 0 47 -19t19 -45v-976q0 -28 -19 -47t-47 -19t-46.5 19t-18.5 47
v114q-71 -86 -172.5 -133t-220.5 -47q-146 0 -266 72t-188.5 199t-68.5 282t68.5 282t188.5 199t266 72q118 0 219.5 -47t173.5 -131v114q0 26 18.5 45t46.5 19zM584 131q168 0 280.5 121t112.5 301q0 182 -112 303t-281 121q-167 0 -279 -121.5t-112 -302.5
q0 -180 112 -301t279 -121z" />
    <glyph glyph-name="atilde" unicode="&#xe3;" horiz-adv-x="1169" 
d="M725 1186q57 0 111 43q19 14 30 14q28 0 47 19t19 47q0 27 -19 46t-47 19q-14 0 -27.5 -2.5t-22 -4.5t-20.5 -8.5t-15.5 -8.5t-14.5 -10l-12 -9q-16 -14 -29 -14t-29 14l-12 9q-11 8 -14.5 10t-15.5 8.5t-20.5 8.5t-22 4.5t-27.5 2.5q-57 0 -111 -43q-19 -14 -31 -14
t-28 14q-1 1 -10 7.5t-12.5 8.5t-12.5 7.5t-16 8t-17.5 5.5t-21.5 4.5t-23 1.5q-26 0 -45.5 -19.5t-19.5 -45.5q0 -27 19 -46.5t46 -19.5q12 0 31 -14q54 -43 110 -43q12 0 23 1.5t21.5 4.5t17.5 5.5t16 8t12.5 7.5t12.5 8.5t10 7.5q16 14 29 14q11 0 30 -14q54 -43 111 -43
zM1042 1106q28 0 47 -19t19 -45v-976q0 -28 -19 -47t-47 -19t-46.5 19t-18.5 47v114q-71 -86 -172.5 -133t-220.5 -47q-146 0 -266 72t-188.5 199t-68.5 282t68.5 282t188.5 199t266 72q118 0 219.5 -47t173.5 -131v114q0 26 18.5 45t46.5 19zM584 131q168 0 280.5 121
t112.5 301q0 182 -112 303t-281 121q-167 0 -279 -121.5t-112 -302.5q0 -180 112 -301t279 -121z" />
    <glyph glyph-name="adieresis" unicode="&#xe4;" horiz-adv-x="1169" 
d="M393 1430q-45 0 -75.5 -28.5t-30.5 -72.5t30.5 -72t75.5 -28q44 0 75.5 28.5t31.5 71.5t-31.5 72t-75.5 29zM772 1430q-45 0 -75.5 -28.5t-30.5 -72.5t30.5 -72t75.5 -28q44 0 74.5 28.5t30.5 71.5q0 44 -30.5 72.5t-74.5 28.5zM1042 1106q28 0 47 -19t19 -45v-976
q0 -28 -19 -47t-47 -19t-46.5 19t-18.5 47v114q-71 -86 -172.5 -133t-220.5 -47q-146 0 -266 72t-188.5 199t-68.5 282t68.5 282t188.5 199t266 72q118 0 219.5 -47t173.5 -131v114q0 26 18.5 45t46.5 19zM584 131q168 0 280.5 121t112.5 301q0 182 -112 303t-281 121
q-167 0 -279 -121.5t-112 -302.5q0 -180 112 -301t279 -121z" />
    <glyph glyph-name="aring" unicode="&#xe5;" horiz-adv-x="1169" 
d="M584 1210q72 0 122 47.5t50 116.5t-50 117.5t-122 48.5q-71 0 -120.5 -48.5t-49.5 -117.5t49.5 -116.5t120.5 -47.5zM584 1409q17 0 29 -9t12 -26q0 -16 -12 -24.5t-29 -8.5q-15 0 -27 8.5t-12 24.5q0 17 12 26t27 9zM1042 1106q28 0 47 -19t19 -45v-976q0 -28 -19 -47
t-47 -19t-46.5 19t-18.5 47v114q-71 -86 -172.5 -133t-220.5 -47q-146 0 -266 72t-188.5 199t-68.5 282t68.5 282t188.5 199t266 72q118 0 219.5 -47t173.5 -131v114q0 26 18.5 45t46.5 19zM584 131q168 0 280.5 121t112.5 301q0 182 -112 303t-281 121q-167 0 -279 -121.5
t-112 -302.5q0 -180 112 -301t279 -121z" />
    <glyph glyph-name="ae" unicode="&#xe6;" horiz-adv-x="2054" 
d="M1993 553q0 -26 -19 -46t-45 -20h-817q20 -156 128 -256t261 -100q103 0 188.5 47.5t139.5 136.5q13 23 40 29t50 -8q23 -13 30 -40t-7 -50q-72 -117 -187.5 -181.5t-253.5 -64.5q-119 0 -220.5 47t-172.5 133v-114q0 -28 -19 -47t-47 -19t-46.5 19t-18.5 47v114
q-71 -86 -172.5 -133t-220.5 -47q-146 0 -266 72t-188.5 199t-68.5 282t68.5 282t188.5 199t266 72q150 0 270.5 -73.5t187.5 -201.5q29 60 74 111q70 79 167 121.5t208 42.5q218 0 360 -156t142 -397zM584 131q168 0 280.5 121t112.5 301q0 182 -112 303t-281 121
q-167 0 -279 -121.5t-112 -302.5q0 -180 112 -301t279 -121zM1112 618h748q-19 161 -120 260t-249 99q-151 0 -255 -99.5t-124 -259.5z" />
    <glyph glyph-name="ccedilla" unicode="&#xe7;" horiz-adv-x="1079" 
d="M989 309q23 -15 27.5 -41.5t-10.5 -48.5q-63 -91 -154 -146t-199 -69v-22q55 -21 89 -69.5t34 -109.5q0 -78 -55 -134t-133 -56q-85 0 -144 65q-18 21 -16 47.5t23 45.5q21 18 47 16t45 -23q17 -20 45 -20q25 0 42 17t17 42t-17 42.5t-42 17.5q-28 0 -47 18.5t-19 46.5
v76q-200 22 -330.5 176t-130.5 373q0 155 68.5 282t188.5 199t266 72q129 0 239.5 -56.5t182.5 -160.5q15 -23 10.5 -50t-27.5 -42q-22 -15 -48.5 -10.5t-41.5 26.5q-117 164 -315 164q-168 0 -281 -121.5t-113 -302.5q0 -180 113.5 -301t280.5 -121q200 0 315 162
q15 23 42 27t48 -11z" />
    <glyph glyph-name="egrave" unicode="&#xe8;" horiz-adv-x="1159" 
d="M733 1182q23 0 41.5 14t24.5 37q5 27 -9.5 49.5t-41.5 28.5l-277 61q-27 5 -49.5 -9.5t-28.5 -41.5q-5 -27 9.5 -49.5t41.5 -28.5l277 -61h12zM594 0q138 0 253 64.5t187 181.5q14 23 7.5 50t-29.5 40q-23 14 -49 8t-41 -29q-52 -88 -138 -136t-190 -48q-151 0 -259 100
t-130 256h817q27 0 46 19.5t19 46.5q0 242 -141.5 397.5t-361.5 155.5q-109 0 -206 -42.5t-167 -121.5q-139 -158 -139 -389q0 -155 67.5 -282t187.5 -199t267 -72zM205 618q20 159 124.5 259t254.5 100q149 0 249 -99t119 -260h-747z" />
    <glyph glyph-name="eacute" unicode="&#xe9;" horiz-adv-x="1159" 
d="M432 1198h12l277 62q27 6 41.5 28t9.5 49q-6 27 -28.5 42t-49.5 10l-276 -62q-27 -6 -41.5 -28.5t-9.5 -49.5q6 -23 24 -37t41 -14zM594 0q138 0 253 64.5t187 181.5q14 23 7.5 50t-29.5 40q-23 14 -49 8t-41 -29q-52 -88 -138 -136t-190 -48q-151 0 -259 100t-130 256
h817q27 0 46 19.5t19 46.5q0 242 -141.5 397.5t-361.5 155.5q-109 0 -206 -42.5t-167 -121.5q-139 -158 -139 -389q0 -155 67.5 -282t187.5 -199t267 -72zM205 618q20 159 124.5 259t254.5 100q149 0 249 -99t119 -260h-747z" />
    <glyph glyph-name="ecircumflex" unicode="&#xea;" horiz-adv-x="1159" 
d="M346 1192q3 0 8.5 1t7.5 1l222 57l219 -57q26 -6 49.5 7.5t30.5 39.5q6 27 -7.5 50.5t-39.5 29.5l-236 61q-18 3 -33 0l-237 -61q-26 -6 -39.5 -30t-5.5 -50q4 -22 21.5 -35.5t39.5 -13.5zM594 0q138 0 253 64.5t187 181.5q14 23 7.5 50t-29.5 40q-23 14 -49 8t-41 -29
q-52 -88 -138 -136t-190 -48q-151 0 -259 100t-130 256h817q27 0 46 19.5t19 46.5q0 242 -141.5 397.5t-361.5 155.5q-109 0 -206 -42.5t-167 -121.5q-139 -158 -139 -389q0 -155 67.5 -282t187.5 -199t267 -72zM205 618q20 159 124.5 259t254.5 100q149 0 249 -99t119 -260
h-747z" />
    <glyph glyph-name="edieresis" unicode="&#xeb;" horiz-adv-x="1159" 
d="M393 1391q-45 0 -75.5 -28.5t-30.5 -72.5t30.5 -72t75.5 -28q44 0 75.5 28.5t31.5 71.5t-31.5 72t-75.5 29zM772 1391q-45 0 -75.5 -28.5t-30.5 -72.5t30.5 -72t75.5 -28q44 0 74.5 28.5t30.5 71.5q0 44 -30.5 72.5t-74.5 28.5zM594 0q138 0 253 64.5t187 181.5
q14 23 7.5 50t-29.5 40q-23 14 -49 8t-41 -29q-52 -88 -138 -136t-190 -48q-151 0 -259 100t-130 256h817q27 0 46 19.5t19 46.5q0 242 -141.5 397.5t-361.5 155.5q-109 0 -206 -42.5t-167 -121.5q-139 -158 -139 -389q0 -155 67.5 -282t187.5 -199t267 -72zM205 618
q20 159 124.5 259t254.5 100q149 0 249 -99t119 -260h-747z" />
    <glyph glyph-name="igrave" unicode="&#xec;" 
d="M283 1182q23 0 41 14t24 37q5 27 -9.5 49.5t-41.5 28.5l-277 61q-27 5 -49 -9.5t-28 -41.5q-5 -27 9.5 -49.5t41.5 -28.5l276 -61h13zM133 0q28 0 47 19t19 47v976q0 26 -19 45t-47 19q-26 0 -45.5 -19t-19.5 -45v-976q0 -28 19 -47t46 -19z" />
    <glyph glyph-name="iacute" unicode="&#xed;" 
d="M-18 1198h12l276 62q27 6 42 28t10 49q-6 27 -28.5 42t-49.5 10l-277 -62q-27 -6 -41.5 -28.5t-9.5 -49.5q6 -23 24.5 -37t41.5 -14zM133 0q28 0 47 19t19 47v976q0 26 -19 45t-47 19q-26 0 -45.5 -19t-19.5 -45v-976q0 -28 19 -47t46 -19z" />
    <glyph glyph-name="icircumflex" unicode="&#xee;" 
d="M-104 1192q3 0 8.5 1t7.5 1l221 57l219 -57q26 -6 49.5 7.5t30.5 39.5q6 27 -7.5 50.5t-39.5 29.5l-235 61q-18 3 -33 0l-238 -61q-26 -6 -39.5 -30t-5.5 -50q4 -21 22 -35t40 -14zM133 0q28 0 47 19t19 47v976q0 26 -19 45t-47 19q-26 0 -45.5 -19t-19.5 -45v-976
q0 -28 19 -47t46 -19z" />
    <glyph glyph-name="idieresis" unicode="&#xef;" 
d="M-57 1391q-45 0 -76 -28.5t-31 -72.5t31 -72t76 -28q44 0 75 28.5t31 71.5t-31 72t-75 29zM322 1391q-45 0 -76 -28.5t-31 -72.5t31 -72t76 -28q44 0 74 28t30 72t-30.5 72.5t-73.5 28.5zM133 0q28 0 47 19t19 47v976q0 26 -19 45t-47 19q-26 0 -45.5 -19t-19.5 -45v-976
q0 -28 19 -47t46 -19z" />
    <glyph glyph-name="eth" unicode="&#xf0;" horiz-adv-x="1269" 
d="M1145 1309q26 0 44.5 -19t18.5 -47t-18.5 -46.5t-44.5 -18.5h-37v-1112q0 -28 -19 -47t-45 -19q-28 0 -46.5 19t-18.5 47v114q-71 -86 -172.5 -133t-220.5 -47q-224 0 -374.5 158.5t-150.5 394.5t150.5 394.5t374.5 158.5q118 0 219.5 -47t173.5 -131v250h-182
q-28 0 -47 18.5t-19 46.5t19 47t47 19h182v71q0 28 18.5 47t46.5 19q26 0 45 -19t19 -47v-71h37zM586 131q167 0 280 121t113 301q0 181 -113 302.5t-280 121.5t-280 -121.5t-113 -302.5q0 -180 113 -301t280 -121z" />
    <glyph glyph-name="ntilde" unicode="&#xf1;" horiz-adv-x="1015" 
d="M659 1143q57 0 111 43q19 14 31 14q28 0 46.5 19t18.5 47q0 27 -19 46t-46 19q-12 0 -23 -1.5t-21.5 -4.5t-17.5 -5.5t-16 -8t-12.5 -7.5t-12.5 -8.5t-10 -7.5q-16 -14 -29 -14q-12 0 -28 14q-1 1 -10 7.5t-12.5 8.5t-12.5 7.5t-16 8t-17.5 5.5t-21.5 4.5t-23 1.5
q-56 0 -110 -43q-19 -14 -31 -14q-13 0 -29 14l-12 8q-11 9 -14.5 11t-15.5 8.5t-20.5 8.5t-22 4.5t-27.5 2.5q-26 0 -46 -19.5t-20 -45.5q0 -27 19.5 -46.5t46.5 -19.5q11 0 30 -14q54 -43 111 -43q14 0 27.5 2.5t22 4.5t20.5 8.5t15.5 8.5t15.5 11l11 8q16 14 29 14
q12 0 31 -14q54 -43 110 -43zM838 965q116 -131 116 -330v-569q0 -28 -18.5 -47t-44.5 -19q-28 0 -47 19t-19 47v569q0 148 -87 245t-220 97q-138 0 -233 -99.5t-95 -242.5v-10v-7v-552q0 -28 -18.5 -47t-46.5 -19q-26 0 -45 19t-19 47v976q0 26 19 45t45 19q27 0 46 -19
t19 -45v-73q134 137 328 137q197 0 320 -141z" />
    <glyph glyph-name="ograve" unicode="&#xf2;" 
d="M764 1182q23 0 41 14t24 37q5 27 -9.5 49.5t-41.5 28.5l-276 61q-27 5 -49.5 -9.5t-28.5 -41.5q-5 -27 9.5 -49.5t41.5 -28.5l277 -61h12zM614 0q112 0 214.5 44t176.5 118t118 176.5t44 214.5t-44 214.5t-118 176.5t-176.5 118t-214.5 44t-214.5 -44t-176.5 -118
t-118 -176.5t-44 -214.5t44 -214.5t118 -176.5t176.5 -118t214.5 -44zM614 977q175 0 298.5 -124.5t123.5 -299.5t-123.5 -298.5t-298.5 -123.5t-298 123.5t-123 298.5t123.5 299.5t297.5 124.5z" />
    <glyph glyph-name="oacute" unicode="&#xf3;" 
d="M463 1198h12l277 62q27 6 41.5 28t9.5 49q-6 27 -28.5 42t-49.5 10l-276 -62q-27 -6 -42 -28.5t-10 -49.5q6 -23 24.5 -37t41.5 -14zM614 0q112 0 214.5 44t176.5 118t118 176.5t44 214.5t-44 214.5t-118 176.5t-176.5 118t-214.5 44t-214.5 -44t-176.5 -118t-118 -176.5
t-44 -214.5t44 -214.5t118 -176.5t176.5 -118t214.5 -44zM614 977q175 0 298.5 -124.5t123.5 -299.5t-123.5 -298.5t-298.5 -123.5t-298 123.5t-123 298.5t123.5 299.5t297.5 124.5z" />
    <glyph glyph-name="ocircumflex" unicode="&#xf4;" 
d="M377 1192q3 0 8.5 1t7.5 1l221 57l220 -57q26 -6 49 7.5t30 39.5q6 27 -7.5 50.5t-39.5 29.5l-235 61q-18 3 -33 0l-238 -61q-26 -6 -39.5 -30t-5.5 -50q4 -21 22 -35t40 -14zM614 0q112 0 214.5 44t176.5 118t118 176.5t44 214.5t-44 214.5t-118 176.5t-176.5 118
t-214.5 44t-214.5 -44t-176.5 -118t-118 -176.5t-44 -214.5t44 -214.5t118 -176.5t176.5 -118t214.5 -44zM614 977q175 0 298.5 -124.5t123.5 -299.5t-123.5 -298.5t-298.5 -123.5t-298 123.5t-123 298.5t123.5 299.5t297.5 124.5z" />
    <glyph glyph-name="otilde" unicode="&#xf5;" 
d="M756 1147q56 0 110 43q19 14 31 14q28 0 47 19t19 47q0 26 -19.5 45.5t-46.5 19.5q-12 0 -23 -1.5t-21.5 -4.5t-17.5 -5.5t-16 -8t-12.5 -7.5t-12.5 -8.5t-10 -7.5q-16 -14 -28 -14q-13 0 -29 14q-1 1 -10 7.5t-12.5 8.5t-12.5 7.5t-16 8t-17.5 5.5t-21.5 4.5t-23 1.5
q-56 0 -110 -43q-19 -14 -31 -14q-13 0 -29 14l-12 8q-11 9 -14.5 11t-15.5 8.5t-20.5 8.5t-22 4.5t-27.5 2.5q-26 0 -46 -19.5t-20 -45.5q0 -27 19.5 -46.5t46.5 -19.5q11 0 30 -14q54 -43 111 -43q12 0 23 1.5t21.5 4.5t17.5 5.5t16 8t12.5 7.5t12.5 8.5t10 7.5
q16 14 28 14t31 -14q54 -43 111 -43zM614 0q112 0 214.5 44t176.5 118t118 176.5t44 214.5t-44 214.5t-118 176.5t-176.5 118t-214.5 44t-214.5 -44t-176.5 -118t-118 -176.5t-44 -214.5t44 -214.5t118 -176.5t176.5 -118t214.5 -44zM614 977q175 0 298.5 -124.5
t123.5 -299.5t-123.5 -298.5t-298.5 -123.5t-298 123.5t-123 298.5t123.5 299.5t297.5 124.5z" />
    <glyph glyph-name="odieresis" unicode="&#xf6;" 
d="M424 1391q-45 0 -76 -28.5t-31 -72.5t31 -72t76 -28q44 0 75 28.5t31 71.5t-31 72t-75 29zM803 1391q-45 0 -76 -28.5t-31 -72.5t31 -72t76 -28q44 0 74 28t30 72t-30.5 72.5t-73.5 28.5zM614 0q112 0 214.5 44t176.5 118t118 176.5t44 214.5t-44 214.5t-118 176.5
t-176.5 118t-214.5 44t-214.5 -44t-176.5 -118t-118 -176.5t-44 -214.5t44 -214.5t118 -176.5t176.5 -118t214.5 -44zM614 977q175 0 298.5 -124.5t123.5 -299.5t-123.5 -298.5t-298.5 -123.5t-298 123.5t-123 298.5t123.5 299.5t297.5 124.5z" />
    <glyph glyph-name="divide" unicode="&#xf7;" horiz-adv-x="712" 
d="M354 936q-37 0 -62.5 -23.5t-25.5 -58.5q0 -36 25.5 -60t62.5 -24t62.5 24t25.5 60q0 35 -25.5 58.5t-62.5 23.5zM586 555q28 0 46.5 19t18.5 47q0 27 -19 46t-46 19h-459q-26 0 -46 -19.5t-20 -45.5q0 -27 19.5 -46.5t46.5 -19.5h459zM354 473q-37 0 -62.5 -23.5
t-25.5 -58.5q0 -36 25.5 -60t62.5 -24t62.5 24t25.5 60q0 35 -25.5 58.5t-62.5 23.5z" />
    <glyph glyph-name="oslash" unicode="&#xf8;" 
d="M614 1106q112 0 214.5 -44t176.5 -118t118 -176.5t44 -214.5t-44 -214.5t-118 -176.5t-176.5 -118t-214.5 -44t-214.5 44t-176.5 118t-118 176.5t-44 214.5t44 214.5t118 176.5t176.5 118t214.5 44zM614 975q-175 0 -298 -123.5t-123 -298.5q0 -142 79 -250l592 592
q-110 80 -250 80zM614 129q175 0 298.5 124.5t123.5 299.5q0 138 -80 248l-591 -590q116 -82 249 -82z" />
    <glyph glyph-name="ugrave" unicode="&#xf9;" horiz-adv-x="1017" 
d="M649 1151q23 0 41.5 14t24.5 37q5 27 -9.5 49.5t-41.5 28.5l-277 61q-27 5 -49.5 -9.5t-28.5 -41.5q-5 -27 9.5 -49.5t41.5 -28.5l277 -61h12zM891 1106q27 0 46 -19t19 -45v-976q0 -28 -18.5 -47t-46.5 -19t-47 19t-19 47v73q-133 -139 -325 -139q-195 0 -320 141
q-119 135 -119 332v569q0 26 19 45t47 19t47 -19t19 -45v-569q0 -149 86.5 -245.5t220.5 -96.5q137 0 231 99t94 243v8v6v555q0 26 19 45t47 19z" />
    <glyph glyph-name="uacute" unicode="&#xfa;" horiz-adv-x="1017" 
d="M348 1167h12l277 62q27 6 41.5 28.5t9.5 49.5q-6 27 -28.5 41.5t-49.5 9.5l-276 -62q-27 -6 -41.5 -28t-9.5 -49q6 -23 24 -37.5t41 -14.5zM891 1106q27 0 46 -19t19 -45v-976q0 -28 -18.5 -47t-46.5 -19t-47 19t-19 47v73q-133 -139 -325 -139q-195 0 -320 141
q-119 135 -119 332v569q0 26 19 45t47 19t47 -19t19 -45v-569q0 -149 86.5 -245.5t220.5 -96.5q137 0 231 99t94 243v8v6v555q0 26 19 45t47 19z" />
    <glyph glyph-name="ucircumflex" unicode="&#xfb;" horiz-adv-x="1017" 
d="M262 1161q3 0 9 1t8 1l221 58l219 -58q26 -6 49.5 7.5t30.5 39.5q6 27 -7.5 50.5t-39.5 29.5l-236 62q-18 3 -33 0l-237 -62q-26 -6 -39.5 -30t-5.5 -50q4 -22 21.5 -35.5t39.5 -13.5zM891 1106q27 0 46 -19t19 -45v-976q0 -28 -18.5 -47t-46.5 -19t-47 19t-19 47v73
q-133 -139 -325 -139q-195 0 -320 141q-119 135 -119 332v569q0 26 19 45t47 19t47 -19t19 -45v-569q0 -149 86.5 -245.5t220.5 -96.5q137 0 231 99t94 243v8v6v555q0 26 19 45t47 19z" />
    <glyph glyph-name="udieresis" unicode="&#xfc;" horiz-adv-x="1017" 
d="M309 1360q-45 0 -75.5 -28t-30.5 -72t30.5 -72.5t75.5 -28.5q44 0 75.5 29t31.5 72t-31.5 71.5t-75.5 28.5zM688 1360q-45 0 -75.5 -28t-30.5 -72t30.5 -72.5t75.5 -28.5q44 0 74.5 28.5t30.5 72.5q0 43 -30.5 71.5t-74.5 28.5zM891 1106q27 0 46 -19t19 -45v-976
q0 -28 -18.5 -47t-46.5 -19t-47 19t-19 47v73q-133 -139 -325 -139q-195 0 -320 141q-119 135 -119 332v569q0 26 19 45t47 19t47 -19t19 -45v-569q0 -149 86.5 -245.5t220.5 -96.5q137 0 231 99t94 243v8v6v555q0 26 19 45t47 19z" />
    <glyph glyph-name="yacute" unicode="&#xfd;" horiz-adv-x="1030" 
d="M365 1194h12l276 61q27 6 42 28.5t10 49.5q-6 27 -28.5 41.5t-49.5 9.5l-277 -61q-27 -6 -41.5 -28.5t-9.5 -49.5q6 -23 24.5 -37t41.5 -14zM903 1106q26 0 46 -19t20 -45v-1126q0 -130 -64.5 -240.5t-175 -174.5t-240.5 -64q-131 0 -243 66.5t-176 181.5q-13 23 -5.5 49
t31.5 39q23 13 49.5 5t38.5 -32q46 -83 127.5 -130.5t177.5 -47.5q145 0 247 101.5t102 246.5v219q-132 -135 -322 -135q-194 0 -324.5 137t-130.5 342v563q0 26 20 45t46 19q28 0 47 -19t19 -45v-563q0 -149 92.5 -248.5t230.5 -99.5q137 0 229.5 99.5t92.5 248.5v563
q0 26 19 45t46 19z" />
    <glyph glyph-name="thorn" unicode="&#xfe;" 
d="M586 1106q146 0 266 -72t188 -199t68 -282t-68 -282t-188 -199t-266 -72q-119 0 -220.5 47t-172.5 133v-678q0 -28 -19 -46.5t-47 -18.5q-27 0 -46.5 19t-19.5 46v1889q0 26 19.5 44.5t46.5 18.5q28 0 47 -18.5t19 -44.5v-463q72 84 173.5 131t219.5 47zM586 131
q167 0 280 121t113 301q0 181 -113 302.5t-280 121.5q-169 0 -281 -121t-112 -303q0 -180 112.5 -301t280.5 -121z" />
    <glyph glyph-name="ydieresis" unicode="&#xff;" horiz-adv-x="1030" 
d="M326 1386q-45 0 -76 -28t-31 -72t31 -72t76 -28q44 0 75 28.5t31 71.5t-31 71.5t-75 28.5zM705 1386q-45 0 -76 -28t-31 -72t31 -72t76 -28q44 0 74 28t30 72t-30 72t-74 28zM903 1106q26 0 46 -19t20 -45v-1126q0 -130 -64.5 -240.5t-175 -174.5t-240.5 -64
q-131 0 -243 66.5t-176 181.5q-13 23 -5.5 49t31.5 39q23 13 49.5 5t38.5 -32q46 -83 127.5 -130.5t177.5 -47.5q145 0 247 101.5t102 246.5v219q-132 -135 -322 -135q-194 0 -324.5 137t-130.5 342v563q0 26 20 45t46 19q28 0 47 -19t19 -45v-563q0 -149 92.5 -248.5
t230.5 -99.5q137 0 229.5 99.5t92.5 248.5v563q0 26 19 45t46 19z" />
    <glyph glyph-name="abreve" unicode="&#x103;" horiz-adv-x="1169" 
d="M580 1245q78 0 134 56t56 135q0 27 -19 46t-46 19q-26 0 -46 -19.5t-20 -45.5q0 -25 -17.5 -43.5t-41.5 -18.5q-25 0 -42.5 18.5t-17.5 43.5q0 26 -19.5 45.5t-45.5 19.5q-27 0 -46.5 -19.5t-19.5 -45.5q0 -79 56.5 -135t134.5 -56zM1042 1106q28 0 47 -19t19 -45v-976
q0 -28 -19 -47t-47 -19t-46.5 19t-18.5 47v114q-71 -86 -172.5 -133t-220.5 -47q-146 0 -266 72t-188.5 199t-68.5 282t68.5 282t188.5 199t266 72q118 0 219.5 -47t173.5 -131v114q0 26 18.5 45t46.5 19zM584 131q168 0 280.5 121t112.5 301q0 182 -112 303t-281 121
q-167 0 -279 -121.5t-112 -302.5q0 -180 112 -301t279 -121z" />
    <glyph glyph-name="dotlessi" unicode="&#x131;" 
d="M133 0q28 0 47 19t19 47v976q0 26 -19 45t-47 19q-26 0 -45.5 -19t-19.5 -45v-976q0 -28 19 -47t46 -19z" />
    <glyph glyph-name="Lslash" unicode="&#x141;" horiz-adv-x="1028" 
d="M901 131q27 0 46.5 -19.5t19.5 -45.5q0 -28 -19 -47t-47 -19h-616q-27 0 -46.5 19.5t-19.5 46.5v821h-92q-28 0 -47 18.5t-19 46.5t19 47t47 19h92v362q0 27 19.5 46.5t46.5 19.5q28 0 46.5 -19t18.5 -47v-362h125q26 0 45 -19t19 -47t-18.5 -46.5t-45.5 -18.5h-125v-756
h551z" />
    <glyph glyph-name="lslash" unicode="&#x142;" horiz-adv-x="579" 
d="M514 975q9 -26 -1.5 -50.5t-35.5 -33.5l-123 -45v-780q0 -28 -18.5 -47t-46.5 -19t-47 19t-19 47v733l-73 -27q-27 -9 -51 2t-33 37q-9 27 1.5 51t36.5 33l119 43v442q0 28 19 47t47 19t46.5 -19t18.5 -47v-395l78 29q25 9 49 -2t33 -37z" />
    <glyph glyph-name="OE" unicode="&#x152;" horiz-adv-x="2080" 
d="M1956 131q26 0 44.5 -19.5t18.5 -45.5q0 -28 -18.5 -47t-44.5 -19h-1170q-196 0 -363 97t-264.5 263.5t-97.5 362.5t97.5 362.5t264.5 263.5t363 97h1170q26 0 44.5 -19t18.5 -47q0 -26 -18.5 -44.5t-44.5 -18.5h-793v-498h572q26 0 45.5 -18.5t19.5 -44.5q0 -28 -19 -47
t-46 -19h-572v-559h793zM193 723q0 -120 47 -229.5t126 -189t189 -126.5t231 -47h246v1186h-246q-121 0 -231 -47t-189 -126.5t-126 -189.5t-47 -231z" />
    <glyph glyph-name="oe" unicode="&#x153;" horiz-adv-x="2056" 
d="M1995 553q0 -26 -20 -46t-46 -20h-817q22 -156 130 -256t259 -100q104 0 190 48t138 136q13 23 40 29t50 -8q23 -13 30 -40t-7 -50q-72 -117 -187.5 -181.5t-253.5 -64.5q-150 0 -271 74t-188 202q-67 -128 -187 -202t-269 -74q-224 0 -374.5 158.5t-150.5 394.5
t150.5 394.5t374.5 158.5q149 0 269 -73.5t187 -201.5q29 60 74 111q70 79 167 121.5t208 42.5q219 0 361.5 -156t142.5 -397zM586 131q167 0 279 121t112 301q0 181 -112 302.5t-279 121.5q-169 0 -281 -121t-112 -303q0 -180 112.5 -301t280.5 -121zM1112 618h748
q-19 161 -120 260t-249 99q-150 0 -254.5 -100t-124.5 -259z" />
    <glyph glyph-name="scedilla" unicode="&#x15f;" horiz-adv-x="821" 
d="M666 100q-83 -79 -201 -96v-45q55 -21 89 -69t34 -109q0 -78 -55.5 -134.5t-133.5 -56.5q-83 0 -143 66q-18 20 -16.5 46.5t22.5 45.5q20 18 46.5 16.5t45.5 -22.5q18 -21 45 -21q25 0 42.5 17.5t17.5 42.5t-17.5 42t-42.5 17q-28 0 -46.5 19t-18.5 47v98
q-93 14 -162.5 61.5t-103.5 122.5q-11 25 -2 50.5t34 37.5q25 11 50.5 1.5t35.5 -33.5q21 -47 75.5 -80t137.5 -33q106 0 168 56.5t62 131.5q0 85 -52.5 122.5t-191.5 72.5q-43 11 -64 17t-62 20.5t-63 27.5t-51.5 36t-45 48.5t-27 62.5t-11.5 81q0 116 89 205q98 94 249 94
q106 0 189 -46.5t121 -127.5q12 -25 3 -50.5t-34 -35.5q-25 -12 -50.5 -3t-37.5 34q-20 41 -69 70.5t-122 29.5q-54 0 -96 -17t-64.5 -43.5t-34 -54.5t-11.5 -55q0 -71 47.5 -102.5t177.5 -63.5q34 -9 50 -13t50.5 -15t52.5 -19.5t48 -24t46.5 -31.5t37 -39t31.5 -48.5
t18.5 -59.5t7.5 -72q0 -125 -94 -219z" />
    <glyph glyph-name="Scaron" unicode="&#x160;" horiz-adv-x="1021" 
d="M274 1686q-22 0 -39.5 -14t-21.5 -36q-8 -26 5.5 -50t39.5 -30l238 -61q15 -3 32 0l236 61q26 6 39.5 29.5t7.5 50.5q-7 26 -30.5 39.5t-49.5 7.5l-219 -57l-221 57q-2 0 -8 1.5t-9 1.5zM510 0q107 0 194.5 35t142.5 93t84.5 130.5t29.5 149.5q0 68 -17.5 124t-50.5 95
t-72 69t-89.5 51.5t-95 36.5t-96.5 30q-3 1 -5 1q-49 14 -79 24t-67.5 24t-59 27t-44.5 31t-35 38.5t-19.5 47.5t-7.5 60q0 99 74.5 174.5t212.5 75.5q139 0 214 -75.5t75 -174.5q0 -28 18.5 -47t46.5 -19t47 19t19 47q0 72 -27.5 139t-78.5 121t-132.5 86.5t-181.5 32.5
q-99 0 -180.5 -32.5t-132 -86.5t-78 -121t-27.5 -139q0 -195 178 -292q70 -39 228 -85q73 -21 114.5 -35.5t89 -38t71.5 -50t40 -66.5t16 -92q0 -51 -19.5 -99.5t-57 -88.5t-100.5 -64.5t-142 -24.5t-141.5 24.5t-99.5 64.5t-56.5 88t-19.5 100q0 27 -19.5 46t-46.5 19
q-28 0 -47 -18.5t-19 -46.5q0 -77 29.5 -149.5t84 -130.5t141.5 -93t194 -35z" />
    <glyph glyph-name="scaron" unicode="&#x161;" horiz-adv-x="821" 
d="M164 1372q-22 0 -40 -14t-22 -35q-8 -26 5.5 -50t39.5 -30l238 -61q15 -3 33 0l235 61q26 6 39.5 29.5t7.5 50.5q-7 26 -30 39.5t-49 7.5l-220 -57l-221 57q-2 0 -7.5 1t-8.5 1zM399 0q163 0 267 100q94 94 94 219q0 38 -7.5 72t-18.5 59.5t-31.5 48.5t-37 39t-46.5 31.5
t-48 24t-52.5 19.5t-50.5 15t-50 13q-130 32 -177.5 63.5t-47.5 102.5q0 27 11.5 55t34 54.5t64.5 43.5t96 17q73 0 122 -29.5t69 -70.5q12 -25 37.5 -34t50.5 3q25 10 34 35.5t-3 50.5q-38 81 -121 127.5t-189 46.5q-151 0 -249 -94q-89 -89 -89 -205q0 -44 11.5 -81
t27 -62.5t45 -48.5t51.5 -36t63 -27.5t62 -20.5t64 -17q139 -35 191.5 -72.5t52.5 -122.5q0 -75 -62 -131.5t-168 -56.5q-83 0 -137.5 33t-75.5 80q-10 24 -35.5 33.5t-50.5 -1.5q-25 -12 -34 -37.5t2 -50.5q40 -88 128.5 -138t202.5 -50z" />
    <glyph glyph-name="uni0163" unicode="&#x163;" horiz-adv-x="727" 
d="M651 92q-54 -63 -131 -82v-55q55 -21 89 -69t34 -109q0 -78 -55 -134.5t-133 -56.5q-84 0 -144 66q-18 20 -16.5 46.5t22.5 45.5q20 18 47 16.5t46 -22.5q18 -21 45 -21q25 0 42 17.5t17 42.5t-17 42t-42 17q-28 0 -47 19t-19 47v104q-89 22 -147 93.5t-58 164.5v713h-59
q-27 0 -45.5 18.5t-18.5 46.5q0 26 19 45t45 19h59v209q0 27 19.5 46t46.5 19q28 0 46.5 -18.5t18.5 -46.5v-209h232q27 0 46 -19t19 -45q0 -28 -18.5 -46.5t-46.5 -18.5h-232v-713q0 -55 40 -94t96 -39q62 0 100 47q19 21 45.5 22.5t46.5 -16.5q21 -17 23.5 -43.5
t-15.5 -48.5z" />
    <glyph glyph-name="Ydieresis" unicode="&#x178;" horiz-adv-x="1157" 
d="M387 1704q-45 0 -75.5 -28t-30.5 -72t30.5 -72.5t75.5 -28.5q44 0 75.5 29t31.5 72t-31.5 71.5t-75.5 28.5zM766 1704q-45 0 -76 -28t-31 -72t31 -72.5t76 -28.5q43 0 73.5 28.5t30.5 72.5t-30 72t-74 28zM1065 1436q23 -15 28 -42.5t-10 -50.5l-440 -641v-636
q0 -28 -18.5 -47t-46.5 -19q-27 0 -46.5 19.5t-19.5 46.5v636l-438 641q-15 23 -10.5 50.5t26.5 42.5q23 15 50 9.5t42 -28.5l396 -577l397 577q15 23 41.5 28.5t48.5 -9.5z" />
    <glyph glyph-name="Zcaron" unicode="&#x17d;" horiz-adv-x="1296" 
d="M430 1767q-22 0 -39.5 -13.5t-21.5 -35.5q-8 -26 5.5 -50t39.5 -30l237 -61q15 -3 33 0l236 61q26 6 39.5 29.5t7.5 50.5q-7 26 -30.5 39.5t-49.5 7.5l-219 -57l-222 57q-2 0 -7.5 1t-8.5 1zM1171 0q26 0 45 19t19 47q0 26 -19 45.5t-45 19.5h-913l928 1210q22 32 6 70
q-21 35 -59 35h-936q-28 0 -47 -19t-19 -47q0 -26 19 -44.5t47 -18.5h804l-925 -1213q-25 -28 -8 -67q19 -37 59 -37h1044z" />
    <glyph glyph-name="zcaron" unicode="&#x17e;" horiz-adv-x="1093" 
d="M313 1448q-22 0 -39.5 -13.5t-21.5 -35.5q-8 -26 5.5 -50t39.5 -30l238 -62q15 -3 32 0l236 62q26 6 39.5 29.5t7.5 50.5q-7 26 -30.5 39.5t-49.5 7.5l-219 -57l-221 57q-2 0 -8 1t-9 1zM967 0q27 0 46 19t19 47q0 26 -19.5 45.5t-45.5 19.5h-701l729 868q27 34 11 70
q-16 37 -60 37h-772q-28 0 -46.5 -19t-18.5 -45q0 -28 18.5 -46.5t46.5 -18.5h631l-729 -871q-25 -28 -8 -69q16 -37 59 -37h840z" />
    <glyph glyph-name="florin" unicode="&#x192;" horiz-adv-x="833" 
d="M731 1423q25 -11 35 -35.5t0 -50.5q-9 -25 -34 -35t-50 1q-30 10 -57 10q-75 0 -142 -55.5t-82 -131.5l-16 -82h246q28 0 46.5 -18.5t18.5 -46.5q0 -27 -19 -46.5t-46 -19.5h-271l-170 -860q-5 -23 -22.5 -38t-40.5 -15q-8 0 -12 2q-26 5 -42 27.5t-10 48.5l164 835h-49
q-27 0 -46 19.5t-19 46.5q0 28 18.5 46.5t46.5 18.5h76l20 109q23 121 125.5 206t225.5 85q57 0 106 -21z" />
    <glyph glyph-name="circumflex" unicode="&#x2c6;" horiz-adv-x="724" 
d="M125 1155q3 0 8.5 1t7.5 1l221 57l220 -57q26 -6 49.5 7.5t30.5 39.5q6 27 -8 50.5t-40 29.5l-235 62q-18 3 -33 0l-237 -62q-26 -6 -40 -30t-6 -50q4 -21 22 -35t40 -14z" />
    <glyph glyph-name="caron" unicode="&#x2c7;" horiz-adv-x="724" 
d="M127 1348q-22 0 -39.5 -14t-21.5 -36q-8 -26 5.5 -49.5t39.5 -29.5l237 -62q15 -3 33 0l235 62q26 6 40 29.5t8 49.5q-8 26 -31 40t-49 8l-219 -58l-222 58q-2 0 -7.5 1t-8.5 1z" />
    <glyph glyph-name="breve" unicode="&#x2d8;" 
d="M582 1233q78 0 134 55.5t56 134.5q0 27 -19 46.5t-46 19.5q-26 0 -46 -20t-20 -46q0 -25 -17 -43t-42 -18t-42.5 18t-17.5 43q0 26 -19.5 46t-45.5 20q-27 0 -46.5 -19.5t-19.5 -46.5q0 -79 56.5 -134.5t134.5 -55.5z" />
    <glyph glyph-name="dotaccent" unicode="&#x2d9;" horiz-adv-x="335" 
d="M168 1419q-45 0 -76 -28t-31 -72t31 -72t76 -28q44 0 75 28.5t31 71.5t-31 71.5t-75 28.5z" />
    <glyph glyph-name="ring" unicode="&#x2da;" horiz-adv-x="464" 
d="M231 1178q72 0 122 47t50 116t-50 117.5t-122 48.5q-71 0 -120.5 -48.5t-49.5 -117.5t49.5 -116t120.5 -47zM231 1376q17 0 29 -9t12 -26q0 -16 -12 -24t-29 -8q-15 0 -26.5 8t-11.5 24q0 17 11.5 26t26.5 9z" />
    <glyph glyph-name="ogonek" unicode="&#x2db;" 
d="M682 14q16 50 -25 80q-24 13 -51.5 7t-40.5 -29l-147 -242q-14 -23 -8 -49t30 -41q23 -14 50 -8t40 30l148 240q1 2 1.5 5t1 4.5t1.5 2.5z" />
    <glyph glyph-name="tilde" unicode="&#x2dc;" horiz-adv-x="819" 
d="M551 1221q57 0 111 43q19 14 30 14q28 0 47 18.5t19 46.5q0 27 -19.5 46.5t-46.5 19.5q-14 0 -27.5 -2.5t-22 -4.5t-20.5 -8.5t-15.5 -8.5t-14.5 -11l-12 -8q-16 -14 -29 -14t-29 14l-12 8q-11 9 -14.5 11t-15.5 8.5t-20.5 8.5t-22 4.5t-27.5 2.5q-57 0 -111 -43
q-19 -14 -31 -14t-28 14q-1 1 -10 7.5t-12.5 8.5t-12.5 7.5t-16 8t-17.5 5.5t-21.5 4.5t-23 1.5q-26 0 -46 -20t-20 -46q0 -27 19.5 -46t46.5 -19q12 0 31 -14q54 -43 110 -43q12 0 23 1.5t21.5 4.5t17.5 5.5t16 8t12.5 7.5t12.5 8.5t10 7.5q16 14 29 14q11 0 30 -14
q54 -43 111 -43z" />
    <glyph glyph-name="hungarumlaut" unicode="&#x2dd;" horiz-adv-x="837" 
d="M150 1208q4 0 12 4l235 156q24 15 29.5 42t-8.5 50q-15 23 -42 28t-48 -9l-238 -156q-22 -14 -27.5 -41.5t7.5 -48.5q33 -44 80 -25zM498 1208q4 0 12 4l235 156q24 15 29.5 42t-8.5 50q-15 23 -42 28t-48 -9l-238 -156q-22 -14 -27.5 -41.5t7.5 -48.5q33 -44 80 -25z
" />
    <glyph glyph-name="uni0394" unicode="&#x394;" horiz-adv-x="755" 
d="M674 0q10 0 18 8q4 12 2 19l-295 1036q-7 14 -20 14q-17 0 -21 -14l-297 -1036q0 -12 5 -19q8 -8 16 -8h592zM111 43l268 938l268 -938h-536z" />
    <glyph glyph-name="uni03A9" unicode="&#x3a9;" horiz-adv-x="1529" 
d="M1401 43q8 0 14 -7t6 -16q0 -8 -6.5 -14t-13.5 -6h-1272q-9 0 -16 6t-7 14q0 9 7 16t16 7h397q-205 76 -335 262t-130 416q0 146 56 279.5t150 230t224 154t273 57.5q191 0 353.5 -97t256.5 -263t94 -361q0 -230 -129.5 -416t-334.5 -262h397zM102 721
q0 -138 52.5 -263.5t141 -216.5t211.5 -144.5t257 -53.5t256.5 53.5t211 144.5t141 216.5t52.5 263.5t-52.5 263.5t-141 216.5t-211 144.5t-256.5 53.5t-257 -53.5t-211.5 -144.5t-141 -216.5t-52.5 -263.5z" />
    <glyph glyph-name="pi" unicode="&#x3c0;" horiz-adv-x="743" 
d="M662 0q8 0 14 7t6 16q0 7 -6 13.5t-14 6.5h-56q-14 0 -23.5 9.5t-9.5 23.5v465q0 7 -6.5 13.5t-13.5 6.5h-469q-9 0 -16 -6t-7 -14v-465q0 -31 22.5 -53.5t53.5 -22.5h56q8 0 14 7t6 16q0 7 -6.5 13.5t-13.5 6.5h-56q-13 0 -23 9.5t-10 23.5v442h426v-442
q0 -31 22.5 -53.5t53.5 -22.5h56z" />
    <glyph glyph-name="endash" unicode="&#x2013;" horiz-adv-x="909" 
d="M782 506q28 0 47 18.5t19 46.5t-19 47t-47 19h-655q-28 0 -47 -19t-19 -47t19 -46.5t47 -18.5h655z" />
    <glyph glyph-name="emdash" unicode="&#x2014;" horiz-adv-x="1163" 
d="M1036 506q28 0 47 18.5t19 46.5t-19 47t-47 19h-909q-28 0 -47 -19t-19 -47t19 -46.5t47 -18.5h909z" />
    <glyph glyph-name="quoteleft" unicode="&#x2018;" horiz-adv-x="299" 
d="M150 1573q-37 0 -63 -23.5t-26 -58.5q0 -44 28 -105t61 -61t60.5 61t27.5 105q0 35 -25.5 58.5t-62.5 23.5z" />
    <glyph glyph-name="quoteright" unicode="&#x2019;" horiz-adv-x="299" 
d="M150 1573q-37 0 -63 -23.5t-26 -58.5q0 -44 28 -105t61 -61t60.5 61t27.5 105q0 35 -25.5 58.5t-62.5 23.5z" />
    <glyph glyph-name="quotesinglbase" unicode="&#x201a;" horiz-adv-x="299" 
d="M150 76q-37 0 -63 -23.5t-26 -58.5q0 -44 28 -105t61 -61t60.5 61t27.5 105q0 35 -25.5 58.5t-62.5 23.5z" />
    <glyph glyph-name="quotedblleft" unicode="&#x201c;" horiz-adv-x="550" 
d="M401 1577q-37 0 -62.5 -23.5t-25.5 -58.5q0 -44 27.5 -105t60.5 -61t60.5 61t27.5 105q0 35 -25.5 58.5t-62.5 23.5zM150 1573q-37 0 -63 -23.5t-26 -58.5q0 -44 28 -105t61 -61t60.5 61t27.5 105q0 35 -25.5 58.5t-62.5 23.5z" />
    <glyph glyph-name="quotedblright" unicode="&#x201d;" horiz-adv-x="550" 
d="M401 1577q-37 0 -62.5 -23.5t-25.5 -58.5q0 -44 27.5 -105t60.5 -61t60.5 61t27.5 105q0 35 -25.5 58.5t-62.5 23.5zM150 1573q-37 0 -63 -23.5t-26 -58.5q0 -44 28 -105t61 -61t60.5 61t27.5 105q0 35 -25.5 58.5t-62.5 23.5z" />
    <glyph glyph-name="quotedblbase" unicode="&#x201e;" horiz-adv-x="550" 
d="M401 80q-37 0 -62.5 -23.5t-25.5 -58.5q0 -44 27.5 -105t60.5 -61t60.5 61t27.5 105q0 35 -25.5 58.5t-62.5 23.5zM150 76q-37 0 -63 -23.5t-26 -58.5q0 -44 28 -105t61 -61t60.5 61t27.5 105q0 35 -25.5 58.5t-62.5 23.5z" />
    <glyph glyph-name="dagger" unicode="&#x2020;" horiz-adv-x="727" 
d="M645 1421q9 0 15 -6t6 -14q0 -9 -6 -16t-15 -7h-260v-788q0 -9 -6 -15t-14 -6q-9 0 -15 6t-6 15v788h-262q-8 0 -14.5 7t-6.5 16q0 7 6.5 13.5t14.5 6.5h262v389q0 9 6 15t15 6q8 0 14 -6t6 -15v-389h260z" />
    <glyph glyph-name="daggerdbl" unicode="&#x2021;" horiz-adv-x="727" 
d="M645 1012q9 0 15 -7t6 -16q0 -20 -21 -20h-260v-379q0 -9 -6 -15t-14 -6q-9 0 -15 6t-6 15v379h-262q-8 0 -14.5 5.5t-6.5 14.5t6.5 16t14.5 7h262v366h-262q-8 0 -14.5 7t-6.5 16q0 7 6.5 13.5t14.5 6.5h262v389q0 9 6 15t15 6q8 0 14 -6t6 -15v-389h260q9 0 15 -6
t6 -14q0 -9 -6 -16t-15 -7h-260v-366h260z" />
    <glyph glyph-name="bullet" unicode="&#x2022;" horiz-adv-x="374" 
d="M188 629q-54 0 -90.5 -33.5t-36.5 -85.5t36.5 -85.5t90.5 -33.5q53 0 89 33.5t36 85.5t-36 85.5t-89 33.5z" />
    <glyph glyph-name="ellipsis" unicode="&#x2026;" horiz-adv-x="1003" 
d="M190 135q-37 0 -62.5 -23.5t-25.5 -58.5q0 -36 25.5 -60t62.5 -24t63 24t26 60q0 35 -26 58.5t-63 23.5zM502 135q-37 0 -62.5 -23.5t-25.5 -58.5q0 -36 25.5 -60t62.5 -24t62.5 24t25.5 60q0 35 -25.5 58.5t-62.5 23.5zM813 135q-37 0 -62.5 -23.5t-25.5 -58.5
q0 -36 25.5 -60t62.5 -24t62.5 24t25.5 60q0 35 -25.5 58.5t-62.5 23.5z" />
    <glyph glyph-name="perthousand" unicode="&#x2030;" horiz-adv-x="2195" 
d="M428 0q41 0 59 37l658 1315q12 25 4 50.5t-33 37.5t-50.5 3t-37.5 -32l-657 -1317q-12 -25 -4 -50.5t32 -37.5q15 -6 29 -6zM373 856q132 0 221.5 84.5t89.5 210.5t-89.5 210.5t-221.5 84.5t-222 -84.5t-90 -210.5t90 -210.5t222 -84.5zM373 1317q78 0 129 -47t51 -119
t-51 -118t-129 -46t-129 46t-51 118t51 119t129 47zM1143 0q133 0 222 84.5t89 210.5t-89 210.5t-222 84.5q-132 0 -220.5 -84.5t-88.5 -210.5t88.5 -210.5t220.5 -84.5zM1823 0q132 0 221.5 84.5t89.5 210.5t-89.5 210.5t-221.5 84.5t-222 -84.5t-90 -210.5t90 -210.5
t222 -84.5zM1143 461q78 0 129 -47t51 -119q0 -71 -51 -117.5t-129 -46.5t-129 46.5t-51 117.5q0 72 51 119t129 47zM1823 461q78 0 129 -47t51 -119q0 -71 -51 -117.5t-129 -46.5t-129.5 46.5t-51.5 117.5q0 72 51.5 119t129.5 47z" />
    <glyph glyph-name="guilsinglleft" unicode="&#x2039;" horiz-adv-x="434" 
d="M307 414q30 0 47 20q19 19 19 45.5t-19 46.5l-135 133l135 136q19 19 19 45.5t-19 46.5q-20 19 -46.5 19t-45.5 -19l-180 -180q-21 -21 -21 -48q0 -24 21 -45l180 -180q17 -20 45 -20z" />
    <glyph glyph-name="guilsinglright" unicode="&#x203a;" horiz-adv-x="434" 
d="M127 414q28 0 45 20l180 180q21 21 21 45q0 27 -21 48l-180 180q-19 19 -45.5 19t-46.5 -19q-19 -20 -19 -46.5t19 -45.5l135 -136l-135 -133q-19 -20 -19 -46.5t19 -45.5q17 -20 47 -20z" />
    <glyph glyph-name="fraction" unicode="&#x2044;" horiz-adv-x="718" 
d="M104 6q27 -9 51 2t33 37l465 1274q9 27 -2 51t-37 33q-27 9 -51 -2t-33 -37l-464 -1274q-9 -27 1.5 -51t36.5 -33z" />
    <glyph glyph-name="Euro" unicode="&#x20ac;" horiz-adv-x="976" 
d="M893 256q22 -17 23.5 -43.5t-17.5 -48.5q-68 -77 -162.5 -120.5t-197.5 -43.5q-27 0 -39 2l-23 -188q-3 -25 -21.5 -41.5t-43.5 -16.5h-6q-28 3 -44.5 24.5t-13.5 49.5l23 201q-137 52 -223.5 174.5t-86.5 273.5q0 181 120 316.5t296 158.5l23 191q3 27 23.5 43.5
t47.5 13.5t44 -24t14 -48l-21 -176q172 -24 291 -159q19 -20 17.5 -47t-23.5 -46q-21 -18 -47 -16t-45 23q-83 95 -207 114l-33 -278h254q28 0 47 -19t19 -47q0 -27 -19.5 -46t-46.5 -19h-268l-33 -283h25q75 0 144 31t118 88q19 22 45.5 23.5t46.5 -17.5zM190 479
q0 -101 54 -185.5t143 -127.5l76 653q-118 -27 -195.5 -122t-77.5 -218z" />
    <glyph glyph-name="trademark" unicode="&#x2122;" horiz-adv-x="507" 
d="M434 1649q12 -4 12 -19v-192q0 -9 -5 -15t-13 -6t-14 6t-6 15v129l-52 -78q-8 -8 -16 -8q-10 0 -14 8l-54 78v-129q0 -9 -5 -15t-13 -6t-14.5 6t-6.5 15v172h-61v-174q0 -8 -5.5 -13.5t-12.5 -5.5q-9 0 -15 5.5t-6 13.5v174h-51q-9 0 -15 6t-6 14t6 13.5t15 5.5h172h4
q6 0 12 -9l70 -104l72 104q6 13 22 9z" />
    <glyph glyph-name="partialdiff" unicode="&#x2202;" horiz-adv-x="845" 
d="M127 1171q175 0 326.5 -112.5t241 -304t89.5 -412.5q0 -146 -103 -244t-257 -98q-155 0 -259 98t-104 244q0 148 104 246t259 98q90 0 174 -41q-44 113 -104 193q-75 98 -170.5 151t-196.5 53q-26 0 -46 19t-20 45q0 27 19.5 46t46.5 19zM424 131q100 0 164.5 59.5
t64.5 151.5t-64.5 152.5t-164.5 60.5q-101 0 -166 -60t-65 -153q0 -92 65 -151.5t166 -59.5z" />
    <glyph glyph-name="product" unicode="&#x220f;" horiz-adv-x="757" 
d="M676 0q8 0 14 6t6 14v1037q0 9 -6 14.5t-14 5.5h-594q-8 0 -14.5 -5.5t-6.5 -14.5v-1037q0 -7 6.5 -13.5t14.5 -6.5q9 0 15.5 6t6.5 14v1014h549v-1014q0 -8 7 -14t16 -6z" />
    <glyph glyph-name="summation" unicode="&#x2211;" horiz-adv-x="964" 
d="M883 -121q11 0 18 10q3 13 0 23l-104 178q-5 8 -14 10t-17 -2q-15 -9 -8 -28l86 -148h-727l295 670q4 8 0 16l-295 670h727l-86 -148q-8 -20 8 -30q21 -8 31 8l104 180q3 10 0 21q-8 12 -18 12h-793h-12q-7 -1 -12 -8t-5 -13v-2q0 -2 5 -12l303 -686l-306 -690
q-5 -9 3 -21q7 -10 18 -10h799z" />
    <glyph glyph-name="minus" unicode="&#x2212;" horiz-adv-x="712" 
d="M586 555q28 0 46.5 19t18.5 47q0 27 -19 46t-46 19h-459q-26 0 -46 -19.5t-20 -45.5q0 -27 19.5 -46.5t46.5 -19.5h459z" />
    <glyph glyph-name="radical" unicode="&#x221a;" horiz-adv-x="1202" 
d="M496 -215h2q10 0 18 12l623 1387q3 8 -0.5 16.5t-12.5 11.5q-18 7 -28 -10l-604 -1349l-222 374q-7 11 -18 11h-170q-9 0 -16 -6.5t-7 -14.5q0 -9 7 -15.5t16 -6.5h158l235 -400q7 -10 19 -10z" />
    <glyph glyph-name="infinity" unicode="&#x221e;" horiz-adv-x="1114" 
d="M174 471q42 0 107 24t112.5 48t138.5 73l25 13q4 -2 11.5 -6.5t11.5 -6.5q184 -98 252 -123q112 -40 165 -6q56 35 56 136q0 126 -68 170q-27 17 -64.5 18t-74 -6.5t-91 -30.5t-94 -42.5t-104.5 -53.5q-156 85 -259.5 119t-166.5 -4q-70 -43 -70 -181q0 -95 52 -125
q21 -16 61 -16zM602 653q136 71 226 101.5t137 1.5q47 -30 47 -133q0 -78 -35 -99q-16 -10 -38.5 -11.5t-55.5 9t-58.5 19.5t-73 33t-71 36.5t-78.5 42.5zM207 770q53 0 127.5 -30.5t179.5 -86.5q-194 -103 -268 -127q-78 -25 -111 -4q-33 20 -33 90q0 114 50 144
q22 14 55 14z" />
    <glyph glyph-name="integral" unicode="&#x222b;" horiz-adv-x="1146" 
d="M168 -227q109 0 201.5 79t115.5 191v2l220 1141q19 98 99 167.5t175 69.5q46 0 78 -14q8 -4 15.5 -1t10.5 11q4 9 1 17.5t-11 11.5q-43 18 -94 18q-109 0 -201 -79.5t-114 -192.5l-220 -1139v-2q-19 -98 -100 -167.5t-176 -69.5q-43 0 -78 14q-8 4 -16 1t-11 -11
q-7 -22 11 -29q44 -18 94 -18z" />
    <glyph glyph-name="approxequal" unicode="&#x2248;" horiz-adv-x="819" 
d="M551 580q12 0 23 1.5t21.5 4.5t17.5 5.5t16 8t12.5 7.5t12.5 8.5t10 7.5q16 14 28 14q28 0 47 18.5t19 46.5q0 27 -19.5 46.5t-46.5 19.5q-14 0 -27.5 -2.5t-22 -4.5t-20.5 -8.5t-15.5 -8.5t-14.5 -10l-12 -9q-16 -14 -29 -14t-29 14l-12 9q-11 8 -14.5 10t-15.5 8.5
t-20.5 8.5t-22 4.5t-27.5 2.5q-57 0 -111 -43q-19 -14 -31 -14t-28 14q-1 1 -10 7.5t-12.5 8.5t-12.5 7.5t-16 8t-17.5 5.5t-21.5 4.5t-23 1.5q-26 0 -46 -20t-20 -46q0 -27 19.5 -46t46.5 -19q15 0 31 -14q54 -43 110 -43q12 0 23 1.5t21.5 4.5t17.5 5.5t16 8t12.5 7.5
t12.5 8.5t10 7.5q16 14 29 14q11 0 30 -14q54 -43 111 -43zM551 297q12 0 23 1.5t21.5 4.5t17.5 5.5t16 8t12.5 7.5t12.5 8.5t10 7.5q16 14 28 14q28 0 47 19t19 47q0 26 -19 45.5t-47 19.5q-14 0 -27.5 -2.5t-22 -4.5t-20.5 -8.5t-15.5 -8.5t-14.5 -11l-12 -8
q-16 -14 -29 -14t-29 14l-12 8q-11 9 -14.5 11t-15.5 8.5t-20.5 8.5t-22 4.5t-27.5 2.5q-57 0 -111 -43q-19 -14 -31 -14t-28 14q-1 1 -10 7.5t-12.5 8.5t-12.5 7.5t-16 8t-17.5 5.5t-21.5 4.5t-23 1.5q-26 0 -46 -19.5t-20 -45.5q0 -27 19.5 -46.5t46.5 -19.5q15 0 31 -14
q54 -43 110 -43q12 0 23 1.5t21.5 4.5t17.5 5.5t16 8t12.5 7.5t12.5 8.5t10 7.5q16 14 29 14q11 0 30 -14q54 -43 111 -43z" />
    <glyph glyph-name="notequal" unicode="&#x2260;" horiz-adv-x="712" 
d="M586 528q27 0 46 -19t19 -46q0 -28 -18.5 -47t-46.5 -19h-254l-17 -32q-12 -24 -38 -33t-52 2q-35 21 -35 63h-63q-27 0 -46.5 19.5t-19.5 46.5q0 26 20 45.5t46 19.5h121l63 131h-184q-27 0 -46.5 19.5t-19.5 46.5q0 26 20 46t46 20h248l22 45q12 23 38.5 31.5
t49.5 -3.5q22 -10 31.5 -30.5t3.5 -42.5h66q27 0 46 -19.5t19 -46.5q0 -28 -18.5 -47t-46.5 -19h-127l-64 -131h191z" />
    <glyph glyph-name="lessequal" unicode="&#x2264;" horiz-adv-x="614" 
d="M487 498q42 0 58 37q12 23 3.5 49.5t-32.5 36.5l-244 122l244 121q24 12 32.5 38.5t-3.5 49.5q-10 24 -36.5 33t-49.5 -2l-361 -180q-37 -19 -37 -60q0 -40 37 -59l361 -180q12 -6 28 -6zM127 276h360q27 0 46.5 19.5t19.5 46.5q0 26 -20 46t-46 20h-360
q-27 0 -46.5 -19.5t-19.5 -46.5q0 -28 19 -47t47 -19z" />
    <glyph glyph-name="greaterequal" unicode="&#x2265;" horiz-adv-x="614" 
d="M127 498q17 0 29 6l360 180q37 19 37 59q0 41 -37 60l-360 180q-23 11 -49.5 2t-36.5 -33q-12 -23 -4 -49.5t32 -38.5l244 -121l-244 -122q-24 -10 -32 -36.5t4 -49.5q16 -37 57 -37zM487 276q28 0 47 19t19 47q0 27 -19.5 46.5t-46.5 19.5h-360q-26 0 -46 -20t-20 -46
q0 -27 19.5 -46.5t46.5 -19.5h360z" />
    <glyph glyph-name="lozenge" unicode="&#x25ca;" horiz-adv-x="653" 
d="M328 336q8 0 16 8l244 336q10 17 -2 29l-244 249q-14 14 -29 0l-245 -249q-11 -14 -2 -29l245 -336q8 -8 17 -8zM111 692l217 221l217 -221l-217 -299z" />
    <glyph glyph-name="u1D153" unicode="&#x1d153;" horiz-adv-x="1542" 
d="M758 0q141 0 274.5 53.5t237.5 157.5q102 103 156.5 235.5t54.5 276.5t-54.5 276.5t-156.5 235.5q-135 132 -312 182q-47 13 -73 -28q-11 -18 -9 -40.5t17 -37.5q142 -151 139 -359q0 -208 -149 -354q-70 -72 -162.5 -110.5t-192.5 -38.5q-207 -3 -358 139
q-15 15 -37.5 17t-40.5 -9q-42 -25 -29 -74q50 -178 183 -311q104 -104 237 -157.5t275 -53.5zM289 360q120 -46 241 -43q126 2 241 50.5t204 138.5q90 89 138 203t50 241q3 122 -43 242q29 -23 58 -49q83 -85 127.5 -193t44.5 -227t-44.5 -227t-127.5 -193
q-114 -113 -267 -153t-306 0t-267 153q-43 48 -49 57z" />
    <glyph glyph-name="acute.case" 
d="M397 1212h13l276 62q27 6 41.5 28.5t9.5 49.5q-6 27 -28.5 41.5t-49.5 9.5l-276 -62q-27 -6 -41.5 -28t-9.5 -49q6 -23 24 -37.5t41 -14.5z" />
    <glyph glyph-name="breve.case" 
d="M582 1233q78 0 134 55.5t56 134.5q0 27 -19 46.5t-46 19.5q-26 0 -46 -20t-20 -46q0 -25 -17 -43t-42 -18t-42.5 18t-17.5 43q0 26 -19.5 46t-45.5 20q-27 0 -46.5 -19.5t-19.5 -46.5q0 -79 56.5 -134.5t134.5 -55.5z" />
    <glyph glyph-name="caron.case" horiz-adv-x="724" 
d="M127 1348q-22 0 -39.5 -14t-21.5 -36q-8 -26 5.5 -49.5t39.5 -29.5l237 -62q15 -3 33 0l235 62q26 6 40 29.5t8 49.5q-8 26 -31 40t-49 8l-219 -58l-222 58q-2 0 -7.5 1t-8.5 1z" />
    <glyph glyph-name="cedilla.case" horiz-adv-x="471" 
d="M221 -440q78 0 133.5 56t55.5 134q0 61 -34 109t-89 69v82q0 27 -19.5 46.5t-46.5 19.5q-28 0 -46.5 -19t-18.5 -47v-135q0 -28 18.5 -46.5t46.5 -18.5q25 0 42.5 -17.5t17.5 -42.5t-17.5 -42t-42.5 -17q-28 0 -45 20q-19 21 -45.5 22.5t-46.5 -16.5q-21 -19 -22.5 -45.5
t16.5 -46.5q59 -65 143 -65z" />
    <glyph glyph-name="circumflex.case" horiz-adv-x="724" 
d="M125 1155q3 0 8.5 1t7.5 1l221 57l220 -57q26 -6 49.5 7.5t30.5 39.5q6 27 -8 50.5t-40 29.5l-235 62q-18 3 -33 0l-237 -62q-26 -6 -40 -30t-6 -50q4 -21 22 -35t40 -14z" />
    <glyph glyph-name="dieresis.case" horiz-adv-x="712" 
d="M168 1407q-45 0 -76 -28t-31 -72t31 -72.5t76 -28.5q44 0 75 29t31 72t-31 71.5t-75 28.5zM547 1407q-45 0 -76 -28t-31 -72t31 -72.5t76 -28.5q43 0 73.5 28.5t30.5 72.5t-30 72t-74 28z" />
    <glyph glyph-name="dotaccent.case" horiz-adv-x="335" 
d="M168 1419q-45 0 -76 -28t-31 -72t31 -72t76 -28q44 0 75 28.5t31 71.5t-31 71.5t-75 28.5z" />
    <glyph glyph-name="grave.case" horiz-adv-x="532" 
d="M403 1212q23 0 41.5 14.5t24.5 37.5q5 27 -9.5 49t-41.5 28l-277 62q-27 5 -49.5 -9.5t-28.5 -41.5q-5 -27 10 -49.5t42 -28.5l276 -62h12z" />
    <glyph glyph-name="hungarumlaut.case" horiz-adv-x="837" 
d="M150 1208q4 0 12 4l235 156q24 15 29.5 42t-8.5 50q-15 23 -42 28t-48 -9l-238 -156q-22 -14 -27.5 -41.5t7.5 -48.5q33 -44 80 -25zM498 1208q4 0 12 4l235 156q24 15 29.5 42t-8.5 50q-15 23 -42 28t-48 -9l-238 -156q-22 -14 -27.5 -41.5t7.5 -48.5q33 -44 80 -25z
" />
    <glyph glyph-name="macron.case" horiz-adv-x="600" 
d="M475 1243q26 0 45 19t19 47q0 27 -18.5 46t-45.5 19h-348q-28 0 -47 -18.5t-19 -46.5t19 -47t47 -19h348z" />
    <glyph glyph-name="ogonek.case" 
d="M682 14q16 50 -25 80q-24 13 -51.5 7t-40.5 -29l-147 -242q-14 -23 -8 -49t30 -41q23 -14 50 -8t40 30l148 240q1 2 1.5 5t1 4.5t1.5 2.5z" />
    <glyph glyph-name="ring.case" horiz-adv-x="464" 
d="M231 1178q72 0 122 47t50 116t-50 117.5t-122 48.5q-71 0 -120.5 -48.5t-49.5 -117.5t49.5 -116t120.5 -47zM231 1376q17 0 29 -9t12 -26q0 -16 -12 -24t-29 -8q-15 0 -26.5 8t-11.5 24q0 17 11.5 26t26.5 9z" />
    <glyph glyph-name="tilde.case" horiz-adv-x="819" 
d="M551 1221q57 0 111 43q19 14 30 14q28 0 47 18.5t19 46.5q0 27 -19.5 46.5t-46.5 19.5q-14 0 -27.5 -2.5t-22 -4.5t-20.5 -8.5t-15.5 -8.5t-14.5 -11l-12 -8q-16 -14 -29 -14t-29 14l-12 8q-11 9 -14.5 11t-15.5 8.5t-20.5 8.5t-22 4.5t-27.5 2.5q-57 0 -111 -43
q-19 -14 -31 -14t-28 14q-1 1 -10 7.5t-12.5 8.5t-12.5 7.5t-16 8t-17.5 5.5t-21.5 4.5t-23 1.5q-26 0 -46 -20t-20 -46q0 -27 19.5 -46t46.5 -19q12 0 31 -14q54 -43 110 -43q12 0 23 1.5t21.5 4.5t17.5 5.5t16 8t12.5 7.5t12.5 8.5t10 7.5q16 14 29 14q11 0 30 -14
q54 -43 111 -43z" />
    </font>
</defs>
</svg>
